<svg xmlns="http://www.w3.org/2000/svg" width="1000" height="760" viewBox="0 0 1000 760">
<rect width="100%" height="100%" fill="#fafafa"/>
<text x="18" y="28" font-size="16" fill="#222">record_parku route.svg</text>
<text x="18" y="48" font-size="12" fill="#555">points=2191 length=43.783m events=13</text>
<line x1="51.8" y1="705.0" x2="51.8" y2="55.0" stroke="#e5e5e5"/>
<line x1="122.8" y1="705.0" x2="122.8" y2="55.0" stroke="#e5e5e5"/>
<line x1="193.8" y1="705.0" x2="193.8" y2="55.0" stroke="#e5e5e5"/>
<line x1="264.8" y1="705.0" x2="264.8" y2="55.0" stroke="#e5e5e5"/>
<line x1="335.8" y1="705.0" x2="335.8" y2="55.0" stroke="#e5e5e5"/>
<line x1="406.8" y1="705.0" x2="406.8" y2="55.0" stroke="#e5e5e5"/>
<line x1="477.9" y1="705.0" x2="477.9" y2="55.0" stroke="#e5e5e5"/>
<line x1="548.9" y1="705.0" x2="548.9" y2="55.0" stroke="#e5e5e5"/>
<line x1="619.9" y1="705.0" x2="619.9" y2="55.0" stroke="#e5e5e5"/>
<line x1="690.9" y1="705.0" x2="690.9" y2="55.0" stroke="#e5e5e5"/>
<line x1="761.9" y1="705.0" x2="761.9" y2="55.0" stroke="#e5e5e5"/>
<line x1="833.0" y1="705.0" x2="833.0" y2="55.0" stroke="#e5e5e5"/>
<line x1="904.0" y1="705.0" x2="904.0" y2="55.0" stroke="#e5e5e5"/>
<line x1="975.0" y1="705.0" x2="975.0" y2="55.0" stroke="#e5e5e5"/>
<line x1="55.0" y1="799.0" x2="945.0" y2="799.0" stroke="#e5e5e5"/>
<line x1="55.0" y1="694.7" x2="945.0" y2="694.7" stroke="#e5e5e5"/>
<line x1="55.0" y1="590.4" x2="945.0" y2="590.4" stroke="#e5e5e5"/>
<line x1="55.0" y1="486.0" x2="945.0" y2="486.0" stroke="#e5e5e5"/>
<line x1="55.0" y1="381.7" x2="945.0" y2="381.7" stroke="#e5e5e5"/>
<line x1="55.0" y1="277.4" x2="945.0" y2="277.4" stroke="#e5e5e5"/>
<line x1="55.0" y1="173.1" x2="945.0" y2="173.1" stroke="#e5e5e5"/>
<line x1="55.0" y1="68.8" x2="945.0" y2="68.8" stroke="#e5e5e5"/>
<line x1="55.0" y1="-35.5" x2="945.0" y2="-35.5" stroke="#e5e5e5"/>
<polyline points="619.3,387.4 619.2,383.3 619.2,382.2 619.2,380.7 619.2,379.0 619.2,376.8 619.1,374.6 619.1,372.5 619.1,370.5 619.1,368.6 619.1,366.8 619.2,364.9 619.2,363.0 619.3,361.0 619.4,358.9 619.6,356.7 619.7,354.5 619.8,352.3 619.9,350.1 620.0,347.9 620.1,345.7 620.2,343.6 620.4,341.5 620.6,339.6 620.8,337.7 620.9,335.9 621.1,334.0 621.3,332.0 621.6,329.9 621.8,327.8 622.1,325.6 622.5,323.5 622.8,321.4 623.1,319.4 623.5,317.4 623.8,315.3 624.1,313.3 624.4,311.3 624.7,309.2 624.9,307.2 625.0,305.1 625.2,303.0 625.3,300.9 625.3,298.8 625.4,296.7 625.4,294.4 625.4,292.3 625.5,290.2 625.5,288.2 625.5,286.2 625.6,284.4 625.7,282.5 625.7,280.5 625.8,278.4 625.9,276.2 625.9,274.0 626.0,271.8 626.0,269.7 626.1,267.6 626.1,265.6 626.2,263.5 626.3,261.4 626.4,259.4 626.6,257.3 626.8,255.3 627.0,253.2 627.3,251.2 627.5,249.1 627.8,247.1 628.1,245.1 628.4,243.0 628.7,241.0 628.9,239.0 629.2,236.9 629.5,234.9 629.9,232.9 630.2,230.9 630.6,228.9 631.0,226.9 631.4,224.9 631.9,223.0 632.3,221.0 632.8,219.1 633.3,217.1 633.8,215.2 634.4,213.2 634.9,211.3 635.4,209.4 636.0,207.5 636.5,205.5 637.1,203.6 637.6,201.7 638.1,199.8 638.7,197.8 639.2,195.9 639.6,193.9 640.1,191.9 640.5,190.0 640.9,188.0 641.3,186.0 641.7,184.0 642.1,182.0 642.5,180.0 643.0,178.1 643.5,176.2 644.0,174.3 644.6,172.5 645.2,170.7 645.9,168.9 646.5,167.2 647.2,165.5 647.9,163.8 648.6,162.1 649.3,160.4 650.1,158.8 650.8,157.1 651.6,155.5 652.4,154.0 653.2,152.5 654.1,151.0 655.0,149.6 656.0,148.2 657.0,146.9 658.0,145.5 659.0,144.3 660.1,143.0 661.1,141.9 662.2,140.7 663.3,139.6 664.4,138.5 665.6,137.5 666.8,136.5 668.0,135.6 669.2,134.7 670.5,133.9 671.8,133.1 673.1,132.3 674.4,131.4 675.7,130.6 677.0,129.8 678.3,128.9 679.6,128.1 680.9,127.3 682.1,126.5 683.4,125.8 684.7,125.1 685.9,124.4 687.2,123.9 688.5,123.4 689.8,123.0 691.0,122.6 692.3,122.3 693.5,122.1 694.8,121.9 696.0,121.7 697.2,121.6 698.4,121.6 699.6,121.6 700.8,121.7 702.0,121.9 703.2,122.2 704.4,122.5 705.7,122.9 706.9,123.4 708.2,123.9 709.5,124.4 710.8,125.0 712.1,125.7 713.4,126.4 714.7,127.1 716.0,127.9 717.3,128.7 718.6,129.6 719.8,130.6 721.1,131.6 722.3,132.6 723.6,133.6 724.8,134.6 726.0,135.6 727.3,136.5 728.6,137.4 729.9,138.3 731.2,139.2 732.5,140.0 733.8,140.8 735.1,141.5 736.4,142.3 737.7,143.2 738.9,144.0 740.1,145.0 741.3,145.9 742.4,147.0 743.6,148.0 744.7,149.1 745.8,150.3 746.9,151.5 748.0,152.8 749.1,154.2 750.2,155.5 751.1,156.9 752.0,158.3 752.9,159.8 753.8,161.2 754.7,162.7 755.6,164.3 756.5,165.8 757.5,167.3 758.4,168.8 759.4,170.3 760.3,171.8 761.2,173.4 762.0,175.1 762.9,176.7 763.7,178.4 764.4,180.2 765.1,182.0 765.8,183.8 766.5,185.5 767.2,187.3 767.9,189.0 768.6,190.8 769.2,192.5 769.8,194.3 770.4,196.1 770.9,197.9 771.4,199.8 771.8,201.7 772.3,203.7 772.7,205.6 773.2,207.6 773.7,209.5 774.2,211.4 774.8,213.3 775.5,215.2 776.1,217.0 776.8,218.8 777.5,220.6 778.1,222.4 778.8,224.1 779.3,225.8 779.9,227.5 780.4,229.2 780.9,230.7 781.4,232.2 782.0,233.7 782.5,235.1 783.1,236.5 783.7,237.9 784.3,239.3 784.9,240.7 785.5,242.0 786.0,243.3 786.6,244.6 787.2,245.7 787.9,246.7 788.8,247.5 789.7,248.1 790.8,248.5 792.0,248.8 793.2,249.0 794.5,249.1 795.9,249.1 797.2,249.2 798.6,249.2 799.9,249.3 801.1,249.3 802.4,249.2 803.6,249.1 804.8,249.0 806.0,248.8 807.2,248.6 808.4,248.3 809.6,248.0 810.7,247.6 811.8,247.1 812.8,246.4 813.8,245.7 814.8,244.9 815.7,243.9 816.6,242.9 817.4,241.8 818.3,240.7 819.1,239.6 820.0,238.5 820.8,237.4 821.6,236.3 822.3,235.3 822.9,234.1 823.3,232.9 823.6,231.7 823.8,230.3 824.0,228.9 824.0,227.3 824.0,225.6 824.0,223.8 824.1,222.0 824.1,220.1 824.1,218.1 824.1,216.1 824.2,214.0 824.2,211.9 824.2,209.9 824.3,207.8 824.3,205.7 824.4,203.6 824.5,201.6 824.6,199.5 824.8,197.4 825.1,195.4 825.3,193.3 825.7,191.3 826.0,189.3 826.4,187.3 826.8,185.3 827.2,183.3 827.6,181.3 827.9,179.3 828.2,177.2 828.6,175.2 828.9,173.2 829.2,171.1 829.5,169.1 829.8,167.1 830.2,165.1 830.6,163.1 830.9,161.0 831.3,159.0 831.7,157.0 832.1,155.0 832.5,153.0 832.8,151.0 833.2,149.0 833.5,147.0 833.8,144.9 834.1,142.9 834.5,140.9 834.8,139.0 835.2,137.0 835.7,135.2 836.1,133.3 836.5,131.4 836.8,129.6 837.1,127.8 837.4,126.1 837.7,124.4 838.0,122.8 838.3,121.3 838.7,119.9 839.0,118.5 839.5,117.3 840.0,116.1 840.5,115.0 841.0,113.9 841.6,112.8 842.3,111.8 843.1,110.9 843.8,110.0 844.7,109.2 845.6,108.6 846.5,108.1 847.5,107.6 848.6,107.4 849.7,107.2 850.9,107.2 852.1,107.2 853.4,107.3 854.8,107.5 856.1,107.7 857.5,107.9 858.9,108.2 860.3,108.4 861.7,108.7 863.1,108.9 864.6,109.1 866.0,109.2 867.4,109.4 868.8,109.4 870.2,109.5 871.6,109.5 873.0,109.5 874.3,109.5 875.7,109.6 877.0,109.6 878.3,109.7 879.6,109.8 880.8,109.9 882.1,110.1 883.4,110.4 884.6,110.7 885.8,111.1 887.0,111.6 888.1,112.1 889.2,112.8 890.2,113.5 891.2,114.3 892.2,115.3 893.1,116.3 894.0,117.4 894.8,118.6 895.6,119.8 896.3,121.2 897.0,122.6 897.7,124.1 898.4,125.6 899.0,127.1 899.6,128.7 900.2,130.4 900.8,132.1 901.3,133.8 901.8,135.7 902.3,137.6 902.7,139.5 903.0,141.5 903.3,143.5 903.6,145.5 903.8,147.6 904.0,149.6 904.3,151.7 904.5,153.7 904.8,155.8 905.1,157.8 905.4,159.8 905.7,161.8 906.0,163.8 906.3,165.9 906.5,167.9 906.7,169.9 906.9,171.9 907.2,173.9 907.4,175.9 907.6,177.8 907.9,179.8 908.1,181.7 908.3,183.7 908.5,185.6 908.8,187.5 909.0,189.3 909.1,191.1 909.3,192.8 909.4,194.4 909.5,196.0 909.5,197.5 909.4,199.1 909.3,200.6 909.1,202.1 908.9,203.5 908.6,205.0 908.2,206.4 907.8,207.7 907.4,208.9 906.9,210.1 906.4,211.1 905.9,212.1 905.3,213.0 904.7,213.9 903.9,214.7 903.1,215.4 902.2,216.1 901.2,216.8 900.1,217.4 898.9,218.0 897.6,218.5 896.3,219.0 894.9,219.4 893.5,219.8 892.1,220.2 890.8,220.6 889.4,221.0 888.0,221.5 886.6,222.1 885.3,222.7 883.9,223.3 882.6,223.9 881.2,224.5 879.8,225.0 878.5,225.5 877.1,225.9 875.7,226.4 874.3,226.8 872.9,227.2 871.5,227.7 870.1,228.2 868.8,228.7 867.4,229.2 866.0,229.8 864.7,230.3 863.3,230.8 861.9,231.3 860.5,231.9 859.2,232.4 857.8,232.9 856.4,233.5 855.1,234.1 853.7,234.6 852.3,235.2 851.0,235.8 849.6,236.5 848.3,237.1 846.9,237.8 845.6,238.6 844.3,239.4 843.0,240.2 841.7,240.9 840.4,241.7 839.0,242.5 837.7,243.2 836.4,243.9 835.0,244.6 833.7,245.2 832.3,245.7 831.0,246.1 829.6,246.6 828.2,247.1 826.9,247.6 825.6,248.2 824.3,248.9 823.1,249.6 821.8,250.4 820.6,251.2 819.4,252.1 818.3,253.1 817.1,254.1 816.1,255.2 815.0,256.3 814.1,257.4 813.2,258.6 812.5,259.8 811.8,261.1 811.3,262.4 810.9,263.7 810.5,265.1 810.2,266.6 809.9,268.2 809.7,270.0 809.4,271.8 809.1,273.8 808.9,275.8 808.7,277.8 808.6,279.9 808.6,281.9 808.6,284.0 808.6,286.1 808.6,288.2 808.6,290.3 808.6,292.3 808.7,294.4 808.7,296.5 808.8,298.6 808.9,300.7 809.0,302.7 809.1,304.8 809.3,306.9 809.4,309.0 809.6,311.0 809.7,313.1 809.8,315.1 810.1,317.1 810.4,319.1 810.9,320.9 811.5,322.6 812.2,324.2 813.1,325.7 814.0,327.1 814.9,328.4 815.9,329.6 816.9,330.8 817.9,331.8 818.9,332.8 820.0,333.8 821.1,334.7 822.2,335.7 823.4,336.6 824.6,337.6 825.7,338.5 826.9,339.5 828.2,340.4 829.4,341.3 830.7,342.1 832.0,342.9 833.3,343.7 834.6,344.6 835.9,345.5 837.1,346.5 838.2,347.7 839.2,349.0 840.2,350.5 841.1,352.1 841.9,353.7 842.6,355.4 843.4,357.2 844.1,358.9 844.9,360.6 845.8,362.3 846.6,363.9 847.5,365.5 848.4,367.1 849.4,368.6 850.4,370.0 851.4,371.3 852.4,372.3 853.3,373.2 854.1,373.8 854.7,374.1 855.2,374.3 855.5,374.5 855.7,374.8 855.8,375.2 856.0,376.0 856.1,377.2 856.2,378.7 856.4,380.5 856.5,382.4 856.6,384.5 856.7,386.5 856.7,388.6 856.8,390.7 856.9,392.7 857.1,394.8 857.4,396.8 857.7,398.7 858.1,400.6 858.5,402.4 858.8,404.1 858.9,405.6 859.0,407.0 859.0,408.2 859.0,409.3 858.9,410.4 858.9,411.5 859.1,412.6 859.4,413.7 859.8,415.0 860.3,416.4 860.7,418.0 861.1,419.7 861.4,421.6 861.6,423.6 861.7,425.6 861.8,427.7 861.8,429.8 861.9,431.7 861.9,433.5 862.0,435.1 862.0,436.3 862.0,437.1 862.0,437.7 861.9,438.0 861.8,438.2 861.7,438.3 861.6,438.4 861.4,438.5 861.3,438.6 861.2,438.8 861.0,438.9 860.9,439.0 860.8,439.1 860.7,439.2 860.5,439.3 860.4,439.5 860.3,439.6 860.2,439.7 860.0,439.8 859.9,439.9 859.8,440.0 859.6,440.2 859.5,440.3 859.4,440.4 859.3,440.5 859.1,440.6 859.0,440.7 858.9,440.9 858.8,441.0 858.7,441.1 858.6,441.4 858.5,441.9 858.5,442.6 858.5,443.7 858.5,445.1 858.5,446.7 858.6,448.2 858.7,449.6 858.8,450.6 858.9,451.4 859.0,452.0 859.2,452.5 859.3,452.9 859.5,453.3 859.6,453.6 859.8,454.0 859.9,454.4 860.1,454.8 860.2,455.2 860.4,455.6 860.5,456.0 860.7,456.4 860.8,456.9 860.9,457.5 861.0,458.4 861.1,459.6 861.0,461.0 860.9,462.7 860.7,464.5 860.4,466.4 860.2,468.3 859.9,470.3 859.8,472.2 859.7,474.2 859.7,476.2 859.8,478.2 860.0,480.2 860.1,482.3 860.4,484.3 860.6,486.4 860.8,488.4 861.1,490.5 861.4,492.5 861.6,494.6 861.9,496.6 862.2,498.7 862.5,500.7 862.8,502.7 863.1,504.8 863.5,506.8 863.8,508.8 864.2,510.7 864.6,512.6 865.0,514.5 865.4,516.3 865.9,518.1 866.3,519.8 866.6,521.5 866.9,523.2 867.2,524.9 867.3,526.5 867.4,527.9 867.4,529.1 867.3,530.1 867.1,531.0 866.9,531.6 866.6,532.2 866.3,532.7 866.0,533.2 865.7,533.6 865.4,534.1 865.1,534.6 864.7,535.0 864.2,535.3 863.6,535.6 862.7,535.7 861.6,535.9 860.4,536.0 859.1,536.2 857.8,536.4 856.4,536.8 855.1,537.4 853.8,538.0 852.5,538.8 851.1,539.5 849.8,540.3 848.5,541.1 847.2,541.8 845.9,542.6 844.7,543.4 843.4,544.2 842.2,545.1 841.0,546.2 840.0,547.4 839.0,548.8 838.1,550.3 837.3,551.9 836.5,553.6 835.8,555.4 835.0,557.1 834.2,558.8 833.3,560.4 832.4,562.0 831.4,563.5 830.4,564.8 829.3,566.1 828.1,567.3 826.9,568.4 825.7,569.3 824.4,570.1 823.1,570.9 821.8,571.6 820.5,572.3 819.2,573.2 818.0,574.2 816.9,575.3 815.8,576.5 814.7,577.7 813.5,578.9 812.4,580.0 811.2,580.9 810.0,581.7 808.8,582.4 807.6,582.8 806.3,583.1 805.1,583.3 803.9,583.2 802.7,583.0 801.5,582.7 800.3,582.2 799.0,581.6 797.8,580.9 796.5,580.1 795.2,579.3 794.0,578.5 792.7,577.6 791.4,576.8 790.1,576.0 788.8,575.2 787.4,574.5 786.1,573.8 784.8,573.3 783.4,573.0 782.0,572.7 780.6,572.7 779.2,572.7 777.8,572.8 776.4,573.1 775.0,573.4 773.7,573.9 772.3,574.4 770.9,574.9 769.6,575.4 768.2,575.9 766.8,576.3 765.4,576.5 764.0,576.7 762.6,576.7 761.2,576.6 759.9,576.4 758.5,576.1 757.1,575.6 755.8,575.2 754.4,574.7 753.0,574.2 751.6,573.8 750.3,573.5 748.9,573.1 747.4,572.8 746.0,572.6 744.6,572.3 743.2,572.1 741.9,572.0 740.5,572.0 739.2,572.0 737.8,572.0 736.5,572.1 735.3,572.1 734.0,572.1 732.8,571.9 731.7,571.8 730.8,571.5 730.0,571.3 729.4,571.1 728.8,570.9 728.2,570.8 727.7,570.7 727.1,570.6 726.5,570.5 725.8,570.5 724.9,570.6 723.9,570.7 722.8,570.9 721.5,571.1 720.2,571.4 718.8,571.7 717.4,572.1 716.1,572.6 714.7,573.3 713.5,574.1 712.4,574.9 711.4,575.8 710.6,576.6 710.0,577.3 709.5,577.8 708.9,578.0 708.3,578.2 707.6,578.2 706.7,578.2 705.5,578.3 704.3,578.4 702.9,578.6 701.6,578.9 700.2,579.2 698.8,579.5 697.4,579.9 696.0,580.2 694.5,580.5 693.1,580.8 691.7,581.0 690.3,581.2 688.9,581.4 687.5,581.6 686.1,581.7 684.7,581.9 683.2,582.0 681.8,582.2 680.4,582.4 679.0,582.6 677.6,582.8 676.2,583.0 674.8,583.3 673.4,583.5 672.0,583.7 670.5,583.8 669.1,583.9 667.7,583.9 666.3,583.9 664.9,583.8 663.5,583.7 662.1,583.7 660.6,583.7 659.2,583.7 657.8,583.8 656.4,583.9 655.0,584.1 653.6,584.4 652.2,584.7 650.8,585.0 649.4,585.3 648.0,585.7 646.6,586.0 645.2,586.2 643.8,586.5 642.4,586.7 640.9,586.9 639.5,587.1 638.1,587.3 636.7,587.6 635.3,587.8 633.9,588.1 632.5,588.3 631.1,588.6 629.7,588.7 628.3,588.9 626.8,588.9 625.4,589.0 624.0,589.0 622.6,589.0 621.2,589.1 619.7,589.2 618.4,589.4 617.1,589.6 615.9,589.8 614.9,590.1 614.1,590.4 613.4,590.6 612.8,590.8 612.1,590.9 611.3,591.0 610.2,591.0 609.0,591.0 607.7,591.0 606.4,590.9 605.0,590.9 603.5,591.0 602.1,591.1 600.7,591.4 599.4,591.7 598.0,592.2 596.6,592.7 595.3,593.4 593.9,594.1 592.6,594.8 591.3,595.5 590.0,596.3 588.6,597.0 587.3,597.6 585.9,598.3 584.6,598.9 583.2,599.5 581.9,600.2 580.5,600.9 579.2,601.6 577.9,602.5 576.6,603.3 575.4,604.3 574.2,605.3 572.9,606.4 571.7,607.5 570.6,608.6 569.4,609.8 568.3,611.1 567.1,612.4 566.1,613.7 565.0,615.1 564.0,616.6 563.0,618.1 562.1,619.6 561.1,621.2 560.2,622.8 559.4,624.4 558.6,626.1 557.7,627.8 557.0,629.6 556.2,631.3 555.4,633.1 554.7,634.9 554.1,636.7 553.4,638.6 552.8,640.4 552.2,642.3 551.5,644.0 550.7,645.7 549.8,647.2 548.8,648.5 547.7,649.6 546.5,650.5 545.2,651.3 543.9,651.8 542.5,652.3 541.1,652.6 539.8,652.8 538.5,652.8 537.2,652.8 536.0,652.7 534.8,652.5 533.7,652.2 532.6,651.8 531.5,651.3 530.4,650.6 529.3,649.9 528.2,649.2 527.0,648.3 525.8,647.5 524.6,646.6 523.4,645.7 522.1,644.8 520.9,643.9 519.6,642.9 518.4,641.9 517.2,640.9 516.0,639.9 514.7,638.9 513.5,638.0 512.2,637.1 510.9,636.4 509.5,635.8 508.2,635.3 506.8,634.9 505.4,634.5 504.0,634.1 502.6,633.7 501.2,633.4 499.8,632.9 498.4,632.5 497.0,632.0 495.7,631.5 494.3,630.9 492.9,630.3 491.6,629.7 490.2,629.1 488.9,628.5 487.5,627.8 486.2,627.2 484.8,626.6 483.4,626.1 482.1,625.5 480.7,625.0 479.3,624.5 477.9,624.1 476.6,623.6 475.2,623.0 473.8,622.4 472.5,621.8 471.1,621.1 469.8,620.4 468.5,619.6 467.2,618.9 465.9,618.0 464.6,617.2 463.2,616.4 461.9,615.6 460.6,614.8 459.3,614.0 458.0,613.2 456.7,612.5 455.4,611.7 454.0,611.0 452.7,610.3 451.4,609.5 450.1,608.7 448.8,607.9 447.5,607.1 446.2,606.2 444.9,605.3 443.7,604.3 442.4,603.4 441.1,602.4 439.9,601.4 438.7,600.4 437.5,599.3 436.4,598.1 435.3,596.8 434.2,595.5 433.1,594.2 432.1,592.8 431.0,591.4 429.9,590.0 428.9,588.7 427.8,587.4 426.7,586.1 425.6,584.8 424.5,583.5 423.4,582.2 422.3,580.9 421.2,579.6 420.1,578.2 419.1,576.8 418.0,575.4 417.0,573.9 416.0,572.5 415.0,571.0 413.9,569.6 412.9,568.2 411.8,566.8 410.8,565.4 409.7,564.1 408.6,562.7 407.6,561.3 406.5,559.9 405.5,558.4 404.5,556.9 403.5,555.4 402.5,554.0 401.5,552.5 400.5,551.0 399.5,549.6 398.4,548.2 397.3,546.9 396.3,545.6 395.1,544.3 394.0,543.1 392.9,541.9 391.7,540.7 390.6,539.5 389.4,538.3 388.2,537.2 387.0,536.1 385.8,535.0 384.6,534.0 383.4,532.9 382.2,531.9 380.9,531.0 379.7,530.0 378.4,529.0 377.2,528.1 375.9,527.2 374.7,526.3 373.4,525.4 372.2,524.5 370.9,523.5 369.6,522.6 368.4,521.8 367.1,520.9 365.8,520.2 364.5,519.4 363.2,518.7 361.9,518.1 360.5,517.6 359.2,517.1 357.8,516.6 356.4,516.1 355.1,515.7 353.7,515.2 352.3,514.8 351.0,514.4 349.6,514.1 348.2,513.8 346.8,513.6 345.4,513.4 344.1,513.2 342.7,513.1 341.3,513.0 339.9,513.0 338.5,513.1 337.2,513.2 335.8,513.3 334.4,513.4 333.0,513.5 331.6,513.7 330.2,513.8 328.8,513.9 327.4,514.0 326.0,514.0 324.6,514.2 323.2,514.3 321.9,514.5 320.5,514.8 319.1,515.2 317.7,515.7 316.4,516.2 315.0,516.7 313.6,517.2 312.3,517.8 310.9,518.3 309.5,518.8 308.1,519.4 306.8,519.9 305.4,520.5 304.0,521.1 302.7,521.7 301.4,522.4 300.1,523.2 298.8,524.1 297.7,525.1 296.6,526.4 295.6,527.8 294.7,529.4 294.0,531.1 293.3,532.9 292.7,534.7 292.1,536.6 291.5,538.5 290.9,540.4 290.3,542.3 289.7,544.2 289.0,546.0 288.4,547.9 287.6,549.6 286.9,551.4 286.1,553.2 285.3,554.9 284.5,556.6 283.7,558.3 282.8,560.0 282.0,561.6 281.1,563.2 280.1,564.7 279.1,566.2 278.0,567.5 276.9,568.8 275.8,570.0 274.6,571.1 273.4,572.3 272.2,573.4 271.1,574.6 269.9,575.9 268.8,577.1 267.7,578.5 266.6,579.8 265.6,581.2 264.5,582.6 263.6,584.1 262.7,585.6 261.8,587.3 261.1,589.0 260.5,590.8 260.0,592.5 259.5,594.1 259.1,595.6 258.7,596.8 258.3,598.0 257.9,599.0 257.4,599.8 256.8,600.6 256.1,601.2 255.2,601.7 254.1,602.0 252.9,602.1 251.5,602.2 250.1,602.2 248.7,602.2 247.3,602.2 245.9,602.2 244.5,602.3 243.0,602.3 241.6,602.4 240.2,602.4 238.8,602.4 237.4,602.4 236.0,602.4 234.5,602.2 233.1,602.1 231.7,601.8 230.3,601.6 228.9,601.3 227.5,601.0 226.1,600.8 224.7,600.6 223.3,600.5 221.9,600.5 220.4,600.5 219.0,600.5 217.6,600.6 216.2,600.6 214.8,600.7 213.3,600.8 211.9,600.8 210.5,600.8 209.1,600.9 207.7,600.9 206.2,600.9 204.8,601.0 203.4,601.0 202.0,601.1 200.6,601.2 199.2,601.3 197.7,601.5 196.3,601.6 194.9,601.8 193.5,601.9 192.1,602.0 190.7,602.1 189.2,602.2 187.8,602.2 186.4,602.2 185.0,602.2 183.6,602.2 182.2,602.2 180.7,602.3 179.3,602.4 177.9,602.5 176.5,602.6 175.1,602.8 173.7,603.0 172.2,603.2 170.8,603.4 169.4,603.7 168.0,604.0 166.6,604.4 165.2,604.8 163.8,605.2 162.5,605.6 161.1,606.0 159.7,606.3 158.3,606.6 156.8,606.8 155.4,607.0 154.0,607.2 152.6,607.4 151.2,607.6 149.8,607.8 148.4,608.0 147.0,608.3 145.6,608.6 144.1,608.8 142.7,609.1 141.3,609.3 139.9,609.6 138.5,609.8 137.1,610.0 135.7,610.1 134.3,610.2 132.8,610.3 131.4,610.3 130.0,610.4 128.6,610.4 127.2,610.4 125.7,610.4 124.3,610.5 122.9,610.5 121.5,610.5 120.1,610.5 118.8,610.6 117.6,610.5 116.6,610.5 115.9,610.4 115.3,610.4 114.8,610.2 114.5,610.1 114.2,610.0 113.9,609.8 113.6,609.7 113.4,609.6 113.1,609.4 112.8,609.3 112.5,609.1 112.3,609.0 112.0,608.9 111.7,608.7 111.4,608.6 111.1,608.3 110.7,607.9 110.3,607.2 109.8,606.3 109.1,605.1 108.5,603.6 107.8,602.0 107.0,600.3 106.4,598.5 105.7,596.6 105.1,594.8 104.5,593.0 103.8,591.1 103.2,589.3 102.6,587.5 102.0,585.7 101.4,583.9 100.8,582.0 100.3,580.2 99.9,578.3 99.5,576.4 99.2,574.5 98.9,572.6 98.7,570.6 98.5,568.6 98.3,566.7 98.1,564.7 97.9,562.6 97.8,560.6 97.7,558.6 97.6,556.5 97.5,554.4 97.4,552.4 97.3,550.3 97.2,548.2 97.0,546.1 96.8,544.1 96.6,542.0 96.4,540.0 96.1,537.9 95.8,535.9 95.6,533.8 95.3,531.8 95.1,529.7 94.9,527.7 94.7,525.6 94.6,523.5 94.5,521.5 94.4,519.4 94.3,517.3 94.1,515.2 94.0,513.2 93.8,511.1 93.6,509.0 93.4,506.9 93.3,504.9 93.1,502.8 92.9,500.7 92.7,498.7 92.6,496.6 92.4,494.5 92.3,492.4 92.1,490.4 92.0,488.3 91.8,486.2 91.7,484.2 91.5,482.1 91.3,480.0 91.2,478.0 91.1,475.9 90.9,473.9 90.8,471.8 90.7,469.7 90.6,467.7 90.5,465.6 90.5,463.5 90.5,461.5 90.6,459.4 90.6,457.4 90.8,455.3 90.9,453.3 91.1,451.3 91.3,449.2 91.5,447.2 91.6,445.2 91.8,443.2 92.0,441.2 92.1,439.2 92.3,437.2 92.5,435.2 92.8,433.2 93.1,431.2 93.4,429.2 93.8,427.2 94.2,425.2 94.6,423.3 95.0,421.3 95.4,419.3 95.9,417.3 96.3,415.4 96.8,413.4 97.2,411.4 97.7,409.5 98.2,407.5 98.7,405.6 99.2,403.6 99.7,401.7 100.2,399.7 100.7,397.8 101.2,395.8 101.7,393.8 102.1,391.9 102.6,389.9 103.1,387.9 103.6,386.0 104.1,384.1 104.6,382.1 105.2,380.2 105.8,378.4 106.4,376.5 107.1,374.6 107.6,372.7 108.2,370.8 108.7,368.9 109.2,366.9 109.7,364.9 110.1,363.0 110.6,361.0 111.0,359.0 111.5,357.0 111.9,355.1 112.4,353.1 113.0,351.2 113.5,349.2 114.0,347.3 114.6,345.4 115.1,343.4 115.6,341.5 116.1,339.6 116.6,337.6 117.2,335.7 117.7,333.8 118.3,331.9 118.9,330.0 119.6,328.1 120.2,326.3 120.9,324.5 121.6,322.6 122.3,320.8 123.0,319.0 123.6,317.1 124.2,315.2 124.8,313.4 125.3,311.4 125.9,309.5 126.4,307.6 126.9,305.6 127.4,303.7 128.0,301.8 128.5,299.8 128.9,297.8 129.4,295.9 129.8,293.9 130.2,291.9 130.6,289.9 131.0,287.9 131.3,285.9 131.7,283.8 132.0,281.8 132.3,279.8 132.6,277.8 132.9,275.7 133.2,273.7 133.4,271.6 133.7,269.6 134.1,267.6 134.4,265.6 134.9,263.6 135.3,261.6 135.8,259.7 136.2,257.7 136.6,255.7 136.9,253.7 137.2,251.7 137.3,249.9 137.4,248.1 137.4,246.6 137.4,245.2 137.2,244.1 137.0,243.0 136.7,242.0 136.4,241.2 136.1,240.4 135.9,239.7 135.7,239.2 135.6,238.7 135.5,238.2 135.5,237.7 135.7,237.0 135.9,236.2 136.2,235.3 136.6,234.4 137.0,233.4 137.5,232.4 137.9,231.4 138.4,230.6 139.1,229.9 139.9,229.4 140.9,229.1 142.1,229.0 143.4,229.0 144.7,229.1 146.1,229.2 147.5,229.3 149.0,229.4 150.4,229.4 151.8,229.4 153.1,229.2 154.5,228.8 155.9,228.3 157.1,227.7 158.4,227.1 159.6,226.4 160.9,225.7 162.1,225.1 163.4,224.5 164.8,224.0 166.3,223.6 167.8,223.2 169.3,222.8 170.7,222.6 172.2,222.3 173.6,222.1 175.0,221.9 176.4,221.6 177.8,221.4 179.2,221.1 180.6,220.7 182.0,220.4 183.4,220.0 184.8,219.7 186.2,219.4 187.6,219.2 189.0,218.9 190.4,218.7 191.8,218.5 193.2,218.2 194.6,217.9 196.0,217.6 197.4,217.3 198.8,217.0 200.2,216.6 201.6,216.3 203.0,215.9 204.4,215.5 205.8,215.1 207.2,214.6 208.6,214.2 210.0,213.7 211.3,213.3 212.7,212.8 214.1,212.3 215.5,211.9 216.9,211.4 218.3,210.9 219.6,210.4 221.0,210.0 222.4,209.5 223.8,209.1 225.2,208.6 226.6,208.2 228.0,207.8 229.4,207.4 230.7,207.0 232.1,206.7 233.5,206.3 234.9,206.0 236.3,205.6 237.7,205.3 239.1,205.0 240.5,204.6 241.9,204.3 243.3,204.0 244.7,203.6 246.1,203.2 247.5,202.8 248.9,202.5 250.3,202.1 251.7,201.7 253.0,201.4 254.4,201.1 255.8,200.9 257.2,200.7 258.6,200.5 260.0,200.4 261.5,200.4 262.9,200.3 264.3,200.3 265.7,200.3 267.1,200.4 268.5,200.4 270.0,200.4 271.4,200.5 272.8,200.5 274.2,200.4 275.6,200.4 277.1,200.4 278.5,200.3 279.9,200.3 281.3,200.2 282.7,200.1 284.1,200.0 285.6,199.9 287.0,199.7 288.4,199.6 289.8,199.4 291.2,199.2 292.6,199.0 294.1,198.8 295.5,198.7 296.9,198.6 298.3,198.5 299.7,198.4 301.1,198.4 302.6,198.3 304.0,198.3 305.4,198.2 306.8,198.2 308.2,198.2 309.7,198.1 311.1,198.1 312.5,198.0 313.9,197.9 315.3,197.7 316.7,197.5 318.1,197.2 319.5,196.9 320.9,196.5 322.3,196.1 323.7,195.7 325.1,195.2 326.5,194.7 327.8,194.2 329.2,193.8 330.6,193.3 332.0,192.9 333.4,192.5 334.8,192.2 336.2,191.9 337.6,191.6 339.0,191.3 340.4,191.1 341.8,190.8 343.2,190.5 344.6,190.2 346.0,189.9 347.4,189.6 348.8,189.3 350.2,189.0 351.6,188.7 353.0,188.4 354.5,188.1 355.9,187.9 357.3,187.7 358.7,187.6 360.1,187.5 361.5,187.5 362.9,187.6 364.3,187.7 365.8,187.7 367.2,187.7 368.6,187.8 370.0,187.8 371.4,187.8 372.9,187.7 374.3,187.7 375.7,187.6 377.1,187.6 378.5,187.5 379.9,187.4 381.4,187.4 382.8,187.3 384.2,187.3 385.6,187.2 387.0,187.1 388.5,187.0 389.9,186.9 391.3,186.8 392.7,186.6 394.1,186.5 395.5,186.3 396.9,186.1 398.3,185.8 399.8,185.5 401.2,185.2 402.6,184.9 404.0,184.6 405.4,184.3 406.8,184.0 408.2,183.6 409.6,183.3 411.0,183.0 412.4,182.7 413.8,182.4 415.2,182.1 416.6,181.7 418.0,181.4 419.4,181.1 420.8,180.8 422.2,180.6 423.6,180.3 425.0,180.1 426.5,179.8 427.9,179.7 429.3,179.5 430.7,179.3 432.1,179.1 433.5,179.0 434.9,178.8 436.4,178.7 437.8,178.5 439.2,178.3 440.6,178.1 442.0,177.8 443.4,177.6 444.8,177.4 446.2,177.3 447.7,177.1 449.1,177.0 450.5,176.9 451.9,176.8 453.3,176.7 454.7,176.7 456.2,176.7 457.6,176.8 459.0,176.9 460.4,177.0 461.8,177.2 463.2,177.5 464.6,177.9 466.0,178.3 467.3,178.9 468.6,179.6 469.8,180.6 470.8,181.7 471.6,183.1 472.2,184.7 472.5,186.4 472.8,188.0 472.9,189.3 473.2,190.4 473.5,191.1 474.0,191.5 474.5,191.7 475.0,191.7 475.4,191.6 475.7,191.5 476.0,191.4 476.3,191.3 476.7,191.1 477.4,191.0 478.2,191.0 479.1,191.0 479.9,191.0 480.5,191.1 480.9,191.1 481.2,191.2 481.5,191.3 481.7,191.4 481.9,191.5 482.1,191.7 482.3,191.9 482.3,192.3 482.2,192.8 482.0,193.4 481.7,194.0 481.4,194.6 481.1,195.0 480.7,195.4 480.3,195.6 479.8,195.8 479.4,195.8 479.0,195.9 478.8,195.9 478.7,195.9 478.7,195.9 478.8,196.0 478.9,196.0 479.1,196.1 479.3,196.1 479.5,196.2 479.7,196.2 479.8,196.3 480.1,196.3 480.4,196.4 480.8,196.4 481.5,196.4 482.4,196.4 483.4,196.4 484.7,196.3 486.0,196.2 487.4,196.1 488.9,196.0 490.3,195.8 491.7,195.7 493.1,195.6 494.5,195.5 495.9,195.4 497.4,195.3 498.8,195.2 500.2,195.0 501.6,194.8 503.0,194.6 504.4,194.2 505.8,193.8 507.2,193.4 508.5,193.0 509.8,192.6 511.0,192.3 512.0,192.0 512.7,191.9 513.3,191.8 513.8,191.8 514.1,191.8 514.3,191.8 514.6,191.8 514.8,191.8 515.1,191.8 515.3,191.9 515.5,191.9 515.8,191.9 516.0,191.9 516.3,191.9 516.5,192.0 516.8,192.0 517.0,192.0 517.2,192.0 517.4,192.0 517.7,192.0 517.8,192.0 518.0,192.0 518.1,192.0 518.2,192.0 518.4,192.0 518.5,191.9 518.6,191.9 518.7,191.9 518.8,191.9 518.9,191.8 519.0,191.8 519.1,191.8 519.2,191.8 519.4,191.7 519.5,191.7 519.6,191.7 519.7,191.7 519.8,191.7 519.9,191.6 520.0,191.6 520.1,191.6 520.3,191.6 520.4,191.5 520.5,191.5 520.6,191.5 520.7,191.5 520.8,191.4 520.9,191.4 521.0,191.4 521.1,191.4 521.2,191.4 521.3,191.4 521.4,191.4 521.5,191.5 521.5,191.6 521.5,191.8 521.5,192.0 521.5,192.2 521.5,192.5 521.5,192.7 521.5,192.9 521.5,193.1 521.5,193.4 521.5,193.6 521.5,193.8 521.5,194.1 521.5,194.3 521.4,194.5 521.4,194.8 521.4,195.0 521.4,195.2 521.4,195.4 521.4,195.7 521.4,195.9 521.4,196.1 521.4,196.4 521.4,196.6 521.4,196.8 521.3,197.0 521.3,197.3 521.3,197.5 521.3,197.7 521.3,198.0 521.3,198.2 521.3,198.4 521.3,198.7 521.3,199.0 521.4,199.4 521.6,200.0 521.8,200.8 522.3,201.9 522.9,203.1 523.6,204.5 524.3,206.0 525.1,207.6 525.9,209.3 526.6,211.0 527.2,212.8 527.8,214.7 528.3,216.5 528.8,218.5 529.2,220.4 529.6,222.4 530.0,224.3 530.4,226.3 530.8,228.1 531.2,229.7 531.7,231.0 532.1,232.0 532.5,232.7 532.9,233.2 533.3,233.5 533.7,233.8 534.1,234.1 534.5,234.3 534.9,234.5 535.3,234.7 535.7,234.7 536.1,234.6 536.4,234.1 536.7,233.2 537.0,231.9 537.3,230.3 537.6,228.6 537.8,226.9 538.0,225.4 538.2,224.1 538.4,223.1 538.5,222.4 538.6,221.9 538.6,221.4 538.7,221.0 538.7,220.6 538.8,220.2 538.8,219.8 538.9,219.4 538.9,219.0 539.0,218.7 539.0,218.3 539.1,217.9 539.1,217.5 539.2,217.0 539.3,216.6 539.4,216.0 539.7,215.4 540.0,214.8 540.5,214.1 541.1,213.5 541.6,212.9 542.2,212.4 542.7,212.0 543.2,211.6 543.7,211.2 544.1,210.9 544.6,210.5 545.2,210.2 545.8,209.9 546.6,209.7 547.6,209.5 548.7,209.4 550.0,209.3 551.3,209.2 552.7,209.0 554.1,208.8 555.5,208.5 556.9,208.1 558.3,207.6 559.6,207.2 561.0,206.8 562.4,206.5 563.8,206.3 565.2,206.1 566.6,206.0 567.9,205.9 569.3,205.9 570.7,205.9 572.0,205.9 573.4,206.0 574.7,206.0 576.0,206.1 577.3,206.2 578.6,206.4 579.9,206.6 581.1,207.0 582.4,207.4 583.6,208.0 584.8,208.6 586.0,209.3 587.1,210.1 588.2,211.0 589.2,211.9 590.2,212.9 591.2,214.0 592.2,215.1 593.1,216.3 594.0,217.5 594.8,218.7 595.6,220.0 596.4,221.3 597.2,222.6 598.0,224.0 598.7,225.3 599.4,226.6 600.1,228.0 600.7,229.4 601.2,230.8 601.7,232.4 602.1,234.1 602.5,235.9 602.7,237.7 602.9,239.7 603.0,241.7 603.0,243.8 603.1,245.8 603.1,247.9 603.1,250.0 603.1,252.1 603.1,254.1 603.1,256.2 603.2,258.3 603.3,260.4 603.3,262.5 603.4,264.5 603.5,266.6 603.5,268.7 603.6,270.8 603.6,272.9 603.6,275.0 603.6,277.1 603.7,279.1 603.7,281.2 603.7,283.3 603.7,285.4 603.6,287.5 603.6,289.6 603.6,291.7 603.6,293.7 603.6,295.8 603.6,297.9 603.6,300.0 603.7,302.1 603.8,304.2 603.8,306.2 603.9,308.3 604.1,310.4 604.2,312.5 604.4,314.5 604.6,316.6 604.8,318.6 605.1,320.7 605.5,322.7 605.8,324.7 606.2,326.7 606.7,328.7 607.1,330.7 607.6,332.6 608.0,334.6 608.4,336.6 608.8,338.6 609.2,340.6 609.6,342.6 610.0,344.6 610.4,346.6 610.8,348.6 611.3,350.6 611.8,352.5 612.4,354.4 613.0,356.3 613.5,358.2 614.1,360.1 614.7,362.0 615.2,363.9 615.6,365.7 616.0,367.4 616.3,368.9 616.5,370.0 616.7,370.9 616.7,371.5 616.8,372.0 616.8,372.4 616.8,372.7 616.8,373.1 616.8,373.5 616.8,373.8 616.8,374.2 616.8,374.5 616.8,374.9 616.8,375.3 616.8,375.6 616.8,376.0 616.8,376.4 616.8,376.8 616.8,377.1 616.8,377.4 616.8,377.6 616.8,377.8 616.8,378.2" fill="none" stroke="#222" stroke-width="2.5"/>
<circle cx="619.3" cy="387.4" r="8" fill="#2ca02c"/>
<text x="629.3" y="379.4" font-size="12">START s=0</text>
<circle cx="616.8" cy="378.2" r="8" fill="#d62728"/>
<text x="626.8" y="370.2" font-size="12">END s=43.78</text>
<circle cx="855.0" cy="374.1" r="6" fill="#1f77b4" stroke="#111"/>
<text x="863.0" y="378.1" font-size="11" fill="#222">POLICY_UPSTAIR s=12.13</text>
<circle cx="712.8" cy="574.2" r="6" fill="#1f77b4" stroke="#111"/>
<text x="720.8" y="578.2" font-size="11" fill="#222">POLICY_CREEP s=17.51</text>
<circle cx="629.8" cy="589.0" r="6" fill="#1f77b4" stroke="#111"/>
<text x="637.8" y="593.0" font-size="11" fill="#222">POLICY_TROT s=18.78</text>
<circle cx="138.5" cy="232.2" r="6" fill="#1f77b4" stroke="#111"/>
<text x="146.5" y="236.2" font-size="11" fill="#222">POLICY_UPSTAIR s=31.63</text>
<circle cx="476.7" cy="191.0" r="6" fill="#1f77b4" stroke="#111"/>
<text x="484.7" y="195.0" font-size="11" fill="#222">POLICY_TROT s=36.69</text>
<circle cx="481.9" cy="191.1" r="6" fill="#6f42c1" stroke="#111"/>
<text x="489.9" y="195.1" font-size="11" fill="#222">STAND s=36.87</text>
<circle cx="480.9" cy="191.7" r="6" fill="#6f42c1" stroke="#111"/>
<text x="488.9" y="195.7" font-size="11" fill="#222">STAND s=36.93</text>
<circle cx="482.9" cy="196.5" r="6" fill="#d62728" stroke="#111"/>
<text x="490.9" y="200.5" font-size="11" fill="#222">JUMP s=37.65</text>
<circle cx="539.4" cy="215.1" r="6" fill="#6f42c1" stroke="#111"/>
<text x="547.4" y="219.1" font-size="11" fill="#222">STAND s=41.23</text>
<circle cx="548.2" cy="209.0" r="6" fill="#6f42c1" stroke="#111"/>
<text x="556.2" y="213.0" font-size="11" fill="#222">STAND s=41.49</text>
<circle cx="546.0" cy="208.8" r="6" fill="#2ca02c" stroke="#111"/>
<text x="554.0" y="212.8" font-size="11" fill="#222">ENTER_RL s=41.57</text>
<circle cx="618.3" cy="379.6" r="6" fill="#6f42c1" stroke="#111"/>
<text x="626.3" y="383.6" font-size="11" fill="#222">STAND s=44.02</text>
<circle cx="616.4" cy="379.1" r="6" fill="#6f42c1" stroke="#111"/>
<text x="624.4" y="383.1" font-size="11" fill="#222">STAND s=44.13</text>
</svg>
