<?xml version="1.0" encoding="utf-8" standalone="no"?>
<!DOCTYPE svg PUBLIC "-//W3C//DTD SVG 1.1//EN"
  "http://www.w3.org/Graphics/SVG/1.1/DTD/svg11.dtd">
<svg xmlns:xlink="http://www.w3.org/1999/xlink" width="648pt" height="576pt" viewBox="0 0 648 576" xmlns="http://www.w3.org/2000/svg" version="1.1">
 <metadata>
  <rdf:RDF xmlns:dc="http://purl.org/dc/elements/1.1/" xmlns:cc="http://creativecommons.org/ns#" xmlns:rdf="http://www.w3.org/1999/02/22-rdf-syntax-ns#">
   <cc:Work>
    <dc:type rdf:resource="http://purl.org/dc/dcmitype/StillImage"/>
    <dc:date>2026-06-30T15:59:05.802711</dc:date>
    <dc:format>image/svg+xml</dc:format>
    <dc:creator>
     <cc:Agent>
      <dc:title>Matplotlib v3.5.1, https://matplotlib.org/</dc:title>
     </cc:Agent>
    </dc:creator>
   </cc:Work>
  </rdf:RDF>
 </metadata>
 <defs>
  <style type="text/css">*{stroke-linejoin: round; stroke-linecap: butt}</style>
 </defs>
 <g id="figure_1">
  <g id="patch_1">
   <path d="M 0 576 
L 648 576 
L 648 0 
L 0 0 
z
" style="fill: #ffffff"/>
  </g>
  <g id="axes_1">
   <g id="patch_2">
    <path d="M 56.18 534.04 
L 576.147273 534.04 
L 576.147273 25.44 
L 56.18 25.44 
z
" style="fill: #ffffff"/>
   </g>
   <g id="PathCollection_1">
    <defs>
     <path id="m4ab5c20f46" d="M 0 3.708099 
C 0.983399 3.708099 1.926654 3.317391 2.622022 2.622022 
C 3.317391 1.926654 3.708099 0.983399 3.708099 0 
C 3.708099 -0.983399 3.317391 -1.926654 2.622022 -2.622022 
C 1.926654 -3.317391 0.983399 -3.708099 0 -3.708099 
C -0.983399 -3.708099 -1.926654 -3.317391 -2.622022 -2.622022 
C -3.317391 -1.926654 -3.708099 -0.983399 -3.708099 0 
C -3.708099 0.983399 -3.317391 1.926654 -2.622022 2.622022 
C -1.926654 3.317391 -0.983399 3.708099 0 3.708099 
z
" style="stroke: #1f77b4"/>
    </defs>
    <g clip-path="url(#p806a458ed6)">
     <use xlink:href="#m4ab5c20f46" x="552.512397" y="355.171639" style="fill: #1f77b4; stroke: #1f77b4"/>
    </g>
   </g>
   <g id="PathCollection_2">
    <defs>
     <path id="m3df776e595" d="M -3.708099 3.708099 
L 3.708099 3.708099 
L 3.708099 -3.708099 
L -3.708099 -3.708099 
z
" style="stroke: #1f77b4"/>
    </defs>
    <g clip-path="url(#p806a458ed6)">
     <use xlink:href="#m3df776e595" x="79.814876" y="292.123753" style="fill: #1f77b4; stroke: #1f77b4"/>
    </g>
   </g>
   <g id="Quiver_1">
    <path d="M 516.961076 368.322235 
L 508.462865 367.604606 
L 509.108791 369.224604 
L 501.533831 366.236758 
L 509.502566 364.561496 
L 508.594123 366.050236 
L 517.092334 366.767865 
L 516.961076 368.322235 
" clip-path="url(#p806a458ed6)" style="fill: #1f77b4; fill-opacity: 0.9"/>
   </g>
   <g id="Quiver_2">
    <path d="M 462.755134 364.353477 
L 454.419555 362.549954 
L 454.851992 364.239515 
L 447.723687 360.303208 
L 455.841615 359.665644 
L 454.749429 361.025331 
L 463.085009 362.828853 
L 462.755134 364.353477 
" clip-path="url(#p806a458ed6)" style="fill: #1f77b4; fill-opacity: 0.9"/>
   </g>
   <g id="Quiver_3">
    <path d="M 410.895687 347.339863 
L 403.141443 343.789331 
L 403.201178 345.532331 
L 397.083826 340.15783 
L 405.149414 341.277449 
L 403.790855 342.371037 
L 411.545099 345.921569 
L 410.895687 347.339863 
" clip-path="url(#p806a458ed6)" style="fill: #1f77b4; fill-opacity: 0.9"/>
   </g>
   <g id="Quiver_4">
    <path d="M 365.31804 318.125655 
L 359.425472 311.960249 
L 358.836677 313.601876 
L 355.139291 306.346768 
L 362.219737 310.368527 
L 360.553159 310.882466 
L 366.445726 317.047872 
L 365.31804 318.125655 
" clip-path="url(#p806a458ed6)" style="fill: #1f77b4; fill-opacity: 0.9"/>
   </g>
   <g id="Quiver_5">
    <path d="M 324.1058 282.885476 
L 317.51573 277.472016 
L 317.128258 279.172452 
L 312.586685 272.413653 
L 320.098714 275.556371 
L 318.505882 276.266655 
L 325.095952 281.680116 
L 324.1058 282.885476 
" clip-path="url(#p806a458ed6)" style="fill: #1f77b4; fill-opacity: 0.9"/>
   </g>
   <g id="Quiver_6">
    <path d="M 275.584469 258.516474 
L 268.483388 253.79321 
L 268.26889 255.523993 
L 263.070622 249.256197 
L 270.860623 251.627512 
L 269.347299 252.494383 
L 276.44838 257.217647 
L 275.584469 258.516474 
" clip-path="url(#p806a458ed6)" style="fill: #1f77b4; fill-opacity: 0.9"/>
   </g>
   <g id="Quiver_7">
    <path d="M 229.87641 229.277229 
L 222.462805 225.061421 
L 222.369705 226.802958 
L 216.7464 220.913501 
L 224.682988 222.73499 
L 223.233899 223.705432 
L 230.647504 227.92124 
L 229.87641 229.277229 
" clip-path="url(#p806a458ed6)" style="fill: #1f77b4; fill-opacity: 0.9"/>
   </g>
   <g id="Quiver_8">
    <path d="M 184.695411 199.166059 
L 176.808711 195.920362 
L 176.936316 197.659711 
L 170.614195 192.52765 
L 178.717283 193.332148 
L 177.402367 194.477841 
L 185.289067 197.723538 
L 184.695411 199.166059 
" clip-path="url(#p806a458ed6)" style="fill: #1f77b4; fill-opacity: 0.9"/>
   </g>
   <g id="Quiver_9">
    <path d="M 134.1519 202.989562 
L 125.751946 204.46447 
L 126.789914 205.865984 
L 118.703271 204.91023 
L 125.980607 201.25679 
L 125.482177 202.928072 
L 133.882131 201.453165 
L 134.1519 202.989562 
" clip-path="url(#p806a458ed6)" style="fill: #1f77b4; fill-opacity: 0.9"/>
   </g>
   <g id="Quiver_10">
    <path d="M 86.794744 229.20515 
L 78.376299 230.570566 
L 79.395931 231.985475 
L 71.322418 230.924516 
L 78.646705 227.366135 
L 78.126557 229.030786 
L 86.545002 227.66537 
L 86.794744 229.20515 
" clip-path="url(#p806a458ed6)" style="fill: #1f77b4; fill-opacity: 0.9"/>
   </g>
   <g id="Quiver_11">
    <path d="M 79.921662 281.265265 
L 71.473518 282.432928 
L 72.459696 283.871354 
L 64.413277 282.621397 
L 71.81898 279.235718 
L 71.259946 280.887716 
L 79.70809 279.720052 
L 79.921662 281.265265 
" clip-path="url(#p806a458ed6)" style="fill: #1f77b4; fill-opacity: 0.9"/>
   </g>
   <g id="PathCollection_3"/>
   <g id="PathCollection_4"/>
   <g id="matplotlib.axis_1">
    <g id="xtick_1">
     <g id="line2d_1">
      <path d="M 69.964991 534.04 
L 69.964991 25.44 
" clip-path="url(#p806a458ed6)" style="fill: none; stroke-dasharray: 0.7,1.155; stroke-dashoffset: 0; stroke: #b0b0b0; stroke-width: 0.7"/>
     </g>
     <g id="line2d_2">
      <defs>
       <path id="me087441f42" d="M 0 0 
L 0 3.5 
" style="stroke: #000000; stroke-width: 0.8"/>
      </defs>
      <g>
       <use xlink:href="#me087441f42" x="69.964991" y="534.04" style="stroke: #000000; stroke-width: 0.8"/>
      </g>
     </g>
     <g id="text_1">
      <!-- −5 -->
      <g transform="translate(62.593897 548.638438)scale(0.1 -0.1)">
       <defs>
        <path id="DejaVuSans-2212" d="M 678 2272 
L 4684 2272 
L 4684 1741 
L 678 1741 
L 678 2272 
z
" transform="scale(0.015625)"/>
        <path id="DejaVuSans-35" d="M 691 4666 
L 3169 4666 
L 3169 4134 
L 1269 4134 
L 1269 2991 
Q 1406 3038 1543 3061 
Q 1681 3084 1819 3084 
Q 2600 3084 3056 2656 
Q 3513 2228 3513 1497 
Q 3513 744 3044 326 
Q 2575 -91 1722 -91 
Q 1428 -91 1123 -41 
Q 819 9 494 109 
L 494 744 
Q 775 591 1075 516 
Q 1375 441 1709 441 
Q 2250 441 2565 725 
Q 2881 1009 2881 1497 
Q 2881 1984 2565 2268 
Q 2250 2553 1709 2553 
Q 1456 2553 1204 2497 
Q 953 2441 691 2322 
L 691 4666 
z
" transform="scale(0.015625)"/>
       </defs>
       <use xlink:href="#DejaVuSans-2212"/>
       <use xlink:href="#DejaVuSans-35" x="83.789062"/>
      </g>
     </g>
    </g>
    <g id="xtick_2">
     <g id="line2d_3">
      <path d="M 178.801097 534.04 
L 178.801097 25.44 
" clip-path="url(#p806a458ed6)" style="fill: none; stroke-dasharray: 0.7,1.155; stroke-dashoffset: 0; stroke: #b0b0b0; stroke-width: 0.7"/>
     </g>
     <g id="line2d_4">
      <g>
       <use xlink:href="#me087441f42" x="178.801097" y="534.04" style="stroke: #000000; stroke-width: 0.8"/>
      </g>
     </g>
     <g id="text_2">
      <!-- −4 -->
      <g transform="translate(171.430003 548.638438)scale(0.1 -0.1)">
       <defs>
        <path id="DejaVuSans-34" d="M 2419 4116 
L 825 1625 
L 2419 1625 
L 2419 4116 
z
M 2253 4666 
L 3047 4666 
L 3047 1625 
L 3713 1625 
L 3713 1100 
L 3047 1100 
L 3047 0 
L 2419 0 
L 2419 1100 
L 313 1100 
L 313 1709 
L 2253 4666 
z
" transform="scale(0.015625)"/>
       </defs>
       <use xlink:href="#DejaVuSans-2212"/>
       <use xlink:href="#DejaVuSans-34" x="83.789062"/>
      </g>
     </g>
    </g>
    <g id="xtick_3">
     <g id="line2d_5">
      <path d="M 287.637203 534.04 
L 287.637203 25.44 
" clip-path="url(#p806a458ed6)" style="fill: none; stroke-dasharray: 0.7,1.155; stroke-dashoffset: 0; stroke: #b0b0b0; stroke-width: 0.7"/>
     </g>
     <g id="line2d_6">
      <g>
       <use xlink:href="#me087441f42" x="287.637203" y="534.04" style="stroke: #000000; stroke-width: 0.8"/>
      </g>
     </g>
     <g id="text_3">
      <!-- −3 -->
      <g transform="translate(280.266109 548.638438)scale(0.1 -0.1)">
       <defs>
        <path id="DejaVuSans-33" d="M 2597 2516 
Q 3050 2419 3304 2112 
Q 3559 1806 3559 1356 
Q 3559 666 3084 287 
Q 2609 -91 1734 -91 
Q 1441 -91 1130 -33 
Q 819 25 488 141 
L 488 750 
Q 750 597 1062 519 
Q 1375 441 1716 441 
Q 2309 441 2620 675 
Q 2931 909 2931 1356 
Q 2931 1769 2642 2001 
Q 2353 2234 1838 2234 
L 1294 2234 
L 1294 2753 
L 1863 2753 
Q 2328 2753 2575 2939 
Q 2822 3125 2822 3475 
Q 2822 3834 2567 4026 
Q 2313 4219 1838 4219 
Q 1578 4219 1281 4162 
Q 984 4106 628 3988 
L 628 4550 
Q 988 4650 1302 4700 
Q 1616 4750 1894 4750 
Q 2613 4750 3031 4423 
Q 3450 4097 3450 3541 
Q 3450 3153 3228 2886 
Q 3006 2619 2597 2516 
z
" transform="scale(0.015625)"/>
       </defs>
       <use xlink:href="#DejaVuSans-2212"/>
       <use xlink:href="#DejaVuSans-33" x="83.789062"/>
      </g>
     </g>
    </g>
    <g id="xtick_4">
     <g id="line2d_7">
      <path d="M 396.473309 534.04 
L 396.473309 25.44 
" clip-path="url(#p806a458ed6)" style="fill: none; stroke-dasharray: 0.7,1.155; stroke-dashoffset: 0; stroke: #b0b0b0; stroke-width: 0.7"/>
     </g>
     <g id="line2d_8">
      <g>
       <use xlink:href="#me087441f42" x="396.473309" y="534.04" style="stroke: #000000; stroke-width: 0.8"/>
      </g>
     </g>
     <g id="text_4">
      <!-- −2 -->
      <g transform="translate(389.102216 548.638438)scale(0.1 -0.1)">
       <defs>
        <path id="DejaVuSans-32" d="M 1228 531 
L 3431 531 
L 3431 0 
L 469 0 
L 469 531 
Q 828 903 1448 1529 
Q 2069 2156 2228 2338 
Q 2531 2678 2651 2914 
Q 2772 3150 2772 3378 
Q 2772 3750 2511 3984 
Q 2250 4219 1831 4219 
Q 1534 4219 1204 4116 
Q 875 4013 500 3803 
L 500 4441 
Q 881 4594 1212 4672 
Q 1544 4750 1819 4750 
Q 2544 4750 2975 4387 
Q 3406 4025 3406 3419 
Q 3406 3131 3298 2873 
Q 3191 2616 2906 2266 
Q 2828 2175 2409 1742 
Q 1991 1309 1228 531 
z
" transform="scale(0.015625)"/>
       </defs>
       <use xlink:href="#DejaVuSans-2212"/>
       <use xlink:href="#DejaVuSans-32" x="83.789062"/>
      </g>
     </g>
    </g>
    <g id="xtick_5">
     <g id="line2d_9">
      <path d="M 505.309416 534.04 
L 505.309416 25.44 
" clip-path="url(#p806a458ed6)" style="fill: none; stroke-dasharray: 0.7,1.155; stroke-dashoffset: 0; stroke: #b0b0b0; stroke-width: 0.7"/>
     </g>
     <g id="line2d_10">
      <g>
       <use xlink:href="#me087441f42" x="505.309416" y="534.04" style="stroke: #000000; stroke-width: 0.8"/>
      </g>
     </g>
     <g id="text_5">
      <!-- −1 -->
      <g transform="translate(497.938322 548.638438)scale(0.1 -0.1)">
       <defs>
        <path id="DejaVuSans-31" d="M 794 531 
L 1825 531 
L 1825 4091 
L 703 3866 
L 703 4441 
L 1819 4666 
L 2450 4666 
L 2450 531 
L 3481 531 
L 3481 0 
L 794 0 
L 794 531 
z
" transform="scale(0.015625)"/>
       </defs>
       <use xlink:href="#DejaVuSans-2212"/>
       <use xlink:href="#DejaVuSans-31" x="83.789062"/>
      </g>
     </g>
    </g>
    <g id="text_6">
     <!-- x (m) -->
     <g transform="translate(302.843324 562.316563)scale(0.1 -0.1)">
      <defs>
       <path id="DejaVuSans-78" d="M 3513 3500 
L 2247 1797 
L 3578 0 
L 2900 0 
L 1881 1375 
L 863 0 
L 184 0 
L 1544 1831 
L 300 3500 
L 978 3500 
L 1906 2253 
L 2834 3500 
L 3513 3500 
z
" transform="scale(0.015625)"/>
       <path id="DejaVuSans-20" transform="scale(0.015625)"/>
       <path id="DejaVuSans-28" d="M 1984 4856 
Q 1566 4138 1362 3434 
Q 1159 2731 1159 2009 
Q 1159 1288 1364 580 
Q 1569 -128 1984 -844 
L 1484 -844 
Q 1016 -109 783 600 
Q 550 1309 550 2009 
Q 550 2706 781 3412 
Q 1013 4119 1484 4856 
L 1984 4856 
z
" transform="scale(0.015625)"/>
       <path id="DejaVuSans-6d" d="M 3328 2828 
Q 3544 3216 3844 3400 
Q 4144 3584 4550 3584 
Q 5097 3584 5394 3201 
Q 5691 2819 5691 2113 
L 5691 0 
L 5113 0 
L 5113 2094 
Q 5113 2597 4934 2840 
Q 4756 3084 4391 3084 
Q 3944 3084 3684 2787 
Q 3425 2491 3425 1978 
L 3425 0 
L 2847 0 
L 2847 2094 
Q 2847 2600 2669 2842 
Q 2491 3084 2119 3084 
Q 1678 3084 1418 2786 
Q 1159 2488 1159 1978 
L 1159 0 
L 581 0 
L 581 3500 
L 1159 3500 
L 1159 2956 
Q 1356 3278 1631 3431 
Q 1906 3584 2284 3584 
Q 2666 3584 2933 3390 
Q 3200 3197 3328 2828 
z
" transform="scale(0.015625)"/>
       <path id="DejaVuSans-29" d="M 513 4856 
L 1013 4856 
Q 1481 4119 1714 3412 
Q 1947 2706 1947 2009 
Q 1947 1309 1714 600 
Q 1481 -109 1013 -844 
L 513 -844 
Q 928 -128 1133 580 
Q 1338 1288 1338 2009 
Q 1338 2731 1133 3434 
Q 928 4138 513 4856 
z
" transform="scale(0.015625)"/>
      </defs>
      <use xlink:href="#DejaVuSans-78"/>
      <use xlink:href="#DejaVuSans-20" x="59.179688"/>
      <use xlink:href="#DejaVuSans-28" x="90.966797"/>
      <use xlink:href="#DejaVuSans-6d" x="129.980469"/>
      <use xlink:href="#DejaVuSans-29" x="227.392578"/>
     </g>
    </g>
   </g>
   <g id="matplotlib.axis_2">
    <g id="ytick_1">
     <g id="line2d_11">
      <path d="M 56.18 507.370662 
L 576.147273 507.370662 
" clip-path="url(#p806a458ed6)" style="fill: none; stroke-dasharray: 0.7,1.155; stroke-dashoffset: 0; stroke: #b0b0b0; stroke-width: 0.7"/>
     </g>
     <g id="line2d_12">
      <defs>
       <path id="m46101ff332" d="M 0 0 
L -3.5 0 
" style="stroke: #000000; stroke-width: 0.8"/>
      </defs>
      <g>
       <use xlink:href="#m46101ff332" x="56.18" y="507.370662" style="stroke: #000000; stroke-width: 0.8"/>
      </g>
     </g>
     <g id="text_7">
      <!-- −4 -->
      <g transform="translate(34.437813 511.16988)scale(0.1 -0.1)">
       <use xlink:href="#DejaVuSans-2212"/>
       <use xlink:href="#DejaVuSans-34" x="83.789062"/>
      </g>
     </g>
    </g>
    <g id="ytick_2">
     <g id="line2d_13">
      <path d="M 56.18 398.534556 
L 576.147273 398.534556 
" clip-path="url(#p806a458ed6)" style="fill: none; stroke-dasharray: 0.7,1.155; stroke-dashoffset: 0; stroke: #b0b0b0; stroke-width: 0.7"/>
     </g>
     <g id="line2d_14">
      <g>
       <use xlink:href="#m46101ff332" x="56.18" y="398.534556" style="stroke: #000000; stroke-width: 0.8"/>
      </g>
     </g>
     <g id="text_8">
      <!-- −3 -->
      <g transform="translate(34.437813 402.333774)scale(0.1 -0.1)">
       <use xlink:href="#DejaVuSans-2212"/>
       <use xlink:href="#DejaVuSans-33" x="83.789062"/>
      </g>
     </g>
    </g>
    <g id="ytick_3">
     <g id="line2d_15">
      <path d="M 56.18 289.698449 
L 576.147273 289.698449 
" clip-path="url(#p806a458ed6)" style="fill: none; stroke-dasharray: 0.7,1.155; stroke-dashoffset: 0; stroke: #b0b0b0; stroke-width: 0.7"/>
     </g>
     <g id="line2d_16">
      <g>
       <use xlink:href="#m46101ff332" x="56.18" y="289.698449" style="stroke: #000000; stroke-width: 0.8"/>
      </g>
     </g>
     <g id="text_9">
      <!-- −2 -->
      <g transform="translate(34.437813 293.497668)scale(0.1 -0.1)">
       <use xlink:href="#DejaVuSans-2212"/>
       <use xlink:href="#DejaVuSans-32" x="83.789062"/>
      </g>
     </g>
    </g>
    <g id="ytick_4">
     <g id="line2d_17">
      <path d="M 56.18 180.862343 
L 576.147273 180.862343 
" clip-path="url(#p806a458ed6)" style="fill: none; stroke-dasharray: 0.7,1.155; stroke-dashoffset: 0; stroke: #b0b0b0; stroke-width: 0.7"/>
     </g>
     <g id="line2d_18">
      <g>
       <use xlink:href="#m46101ff332" x="56.18" y="180.862343" style="stroke: #000000; stroke-width: 0.8"/>
      </g>
     </g>
     <g id="text_10">
      <!-- −1 -->
      <g transform="translate(34.437813 184.661562)scale(0.1 -0.1)">
       <use xlink:href="#DejaVuSans-2212"/>
       <use xlink:href="#DejaVuSans-31" x="83.789062"/>
      </g>
     </g>
    </g>
    <g id="ytick_5">
     <g id="line2d_19">
      <path d="M 56.18 72.026237 
L 576.147273 72.026237 
" clip-path="url(#p806a458ed6)" style="fill: none; stroke-dasharray: 0.7,1.155; stroke-dashoffset: 0; stroke: #b0b0b0; stroke-width: 0.7"/>
     </g>
     <g id="line2d_20">
      <g>
       <use xlink:href="#m46101ff332" x="56.18" y="72.026237" style="stroke: #000000; stroke-width: 0.8"/>
      </g>
     </g>
     <g id="text_11">
      <!-- 0 -->
      <g transform="translate(42.8175 75.825456)scale(0.1 -0.1)">
       <defs>
        <path id="DejaVuSans-30" d="M 2034 4250 
Q 1547 4250 1301 3770 
Q 1056 3291 1056 2328 
Q 1056 1369 1301 889 
Q 1547 409 2034 409 
Q 2525 409 2770 889 
Q 3016 1369 3016 2328 
Q 3016 3291 2770 3770 
Q 2525 4250 2034 4250 
z
M 2034 4750 
Q 2819 4750 3233 4129 
Q 3647 3509 3647 2328 
Q 3647 1150 3233 529 
Q 2819 -91 2034 -91 
Q 1250 -91 836 529 
Q 422 1150 422 2328 
Q 422 3509 836 4129 
Q 1250 4750 2034 4750 
z
" transform="scale(0.015625)"/>
       </defs>
       <use xlink:href="#DejaVuSans-30"/>
      </g>
     </g>
    </g>
    <g id="text_12">
     <!-- y (m) -->
     <g transform="translate(28.358125 293.060313)rotate(-90)scale(0.1 -0.1)">
      <defs>
       <path id="DejaVuSans-79" d="M 2059 -325 
Q 1816 -950 1584 -1140 
Q 1353 -1331 966 -1331 
L 506 -1331 
L 506 -850 
L 844 -850 
Q 1081 -850 1212 -737 
Q 1344 -625 1503 -206 
L 1606 56 
L 191 3500 
L 800 3500 
L 1894 763 
L 2988 3500 
L 3597 3500 
L 2059 -325 
z
" transform="scale(0.015625)"/>
      </defs>
      <use xlink:href="#DejaVuSans-79"/>
      <use xlink:href="#DejaVuSans-20" x="59.179688"/>
      <use xlink:href="#DejaVuSans-28" x="90.966797"/>
      <use xlink:href="#DejaVuSans-6d" x="129.980469"/>
      <use xlink:href="#DejaVuSans-29" x="227.392578"/>
     </g>
    </g>
   </g>
   <g id="line2d_21">
    <path d="M 552.512397 355.171639 
L 547.823193 357.908758 
L 545.631452 359.129137 
L 541.491108 361.300635 
L 536.716904 363.644312 
L 531.624027 365.339108 
L 526.376929 366.526074 
L 521.045375 367.300661 
L 515.636983 367.629564 
L 510.207693 367.708361 
L 504.769262 367.623578 
L 499.331266 367.465765 
L 493.893379 367.259412 
L 488.455274 367.057521 
L 483.025223 366.785213 
L 477.611933 366.358576 
L 472.250992 365.646352 
L 466.952851 364.606967 
L 461.702597 363.2845 
L 456.491524 361.754917 
L 451.325619 360.056639 
L 446.169508 358.320811 
L 441.011765 356.589338 
L 435.861749 354.835335 
L 430.706618 353.097984 
L 425.53625 351.407651 
L 420.36142 349.730378 
L 415.198888 348.021868 
L 410.068463 346.227923 
L 405.00323 344.264302 
L 400.003735 342.134815 
L 395.102627 339.796253 
L 390.298819 337.264399 
L 385.671108 334.452292 
L 381.210787 331.38899 
L 376.975756 328.020295 
L 372.922482 324.423044 
L 369.006559 320.653179 
L 365.12481 316.843807 
L 361.260911 313.014844 
L 357.348253 309.235292 
L 353.377912 305.514948 
L 349.36741 301.837702 
L 345.318489 298.203882 
L 341.198825 294.653757 
L 337.007111 291.190701 
L 332.699487 287.881104 
L 328.287924 284.711579 
L 323.751309 281.723157 
L 319.121094 278.88014 
L 314.378126 276.22639 
L 309.555054 273.727513 
L 304.663306 271.357606 
L 299.742717 269.043315 
L 294.802755 266.767008 
L 289.872697 264.46741 
L 284.965277 262.118509 
L 280.048497 259.790178 
L 275.141512 257.449767 
L 270.3007 254.992465 
L 265.514632 252.438191 
L 260.783853 249.782154 
L 256.144279 246.958184 
L 251.623227 243.94005 
L 247.16062 240.840289 
L 242.747642 237.669131 
L 238.384294 234.424618 
L 234.020401 231.183805 
L 229.548544 228.108641 
L 224.987658 225.167345 
L 220.390529 222.276876 
L 215.767607 219.423084 
L 211.15818 216.543825 
L 206.59392 213.588925 
L 202.028137 210.634025 
L 197.533532 207.591294 
L 193.136227 204.424816 
L 188.819243 201.155379 
L 184.430318 198.046802 
L 179.921891 195.257986 
L 175.171957 193.117071 
L 170.159184 191.888203 
L 164.948437 191.771639 
L 159.693939 192.42335 
L 154.489288 193.685087 
L 149.381065 195.465101 
L 144.379719 197.577828 
L 139.407868 199.7564 
L 134.464968 202.012137 
L 129.538284 204.313259 
L 124.606593 206.602735 
L 119.665869 208.875015 
L 114.719595 211.138045 
L 109.789537 213.437207 
L 104.884729 215.790462 
L 100.111395 218.354967 
L 95.506975 221.15815 
L 91.151354 224.30754 
L 87.162837 227.893907 
L 83.527167 231.886451 
L 80.228997 236.156745 
L 79.814876 240.715018 
L 79.814876 245.543968 
L 79.814876 250.548143 
L 79.814876 255.734401 
L 79.814876 261.057031 
L 79.814876 266.445724 
L 79.814876 271.791209 
L 79.814876 276.910642 
L 79.814876 281.970106 
L 79.814876 286.217871 
L 79.814876 289.08962 
L 79.814876 291.072396 
L 79.814876 292.320638 
L 79.814876 292.48313 
L 79.814876 292.399 
L 79.814876 292.564539 
L 79.814876 292.526338 
L 79.814876 292.443078 
L 79.814876 292.123753 
" clip-path="url(#p806a458ed6)" style="fill: none; stroke: #1f77b4; stroke-width: 2; stroke-linecap: square"/>
   </g>
   <g id="line2d_22">
    <path d="M 552.512397 355.171639 
L 517.026705 367.54505 
" clip-path="url(#p806a458ed6)" style="fill: none; stroke-dasharray: 2.96,1.28; stroke-dashoffset: 0; stroke: #1f77b4; stroke-opacity: 0.4; stroke-width: 0.8"/>
   </g>
   <g id="line2d_23">
    <path d="M 500.706799 367.505684 
L 462.920072 363.591165 
" clip-path="url(#p806a458ed6)" style="fill: none; stroke-dasharray: 2.96,1.28; stroke-dashoffset: 0; stroke: #1f77b4; stroke-opacity: 0.4; stroke-width: 0.8"/>
   </g>
   <g id="line2d_24">
    <path d="M 447.344095 358.716241 
L 411.220393 346.630716 
" clip-path="url(#p806a458ed6)" style="fill: none; stroke-dasharray: 2.96,1.28; stroke-dashoffset: 0; stroke: #1f77b4; stroke-opacity: 0.4; stroke-width: 0.8"/>
   </g>
   <g id="line2d_25">
    <path d="M 396.178437 340.309575 
L 365.881883 317.586764 
" clip-path="url(#p806a458ed6)" style="fill: none; stroke-dasharray: 2.96,1.28; stroke-dashoffset: 0; stroke: #1f77b4; stroke-opacity: 0.4; stroke-width: 0.8"/>
   </g>
   <g id="line2d_26">
    <path d="M 354.14854 306.237053 
L 324.600876 282.282796 
" clip-path="url(#p806a458ed6)" style="fill: none; stroke-dasharray: 2.96,1.28; stroke-dashoffset: 0; stroke: #1f77b4; stroke-opacity: 0.4; stroke-width: 0.8"/>
   </g>
   <g id="line2d_27">
    <path d="M 310.43601 274.183944 
L 276.016424 257.867061 
" clip-path="url(#p806a458ed6)" style="fill: none; stroke-dasharray: 2.96,1.28; stroke-dashoffset: 0; stroke: #1f77b4; stroke-opacity: 0.4; stroke-width: 0.8"/>
   </g>
   <g id="line2d_28">
    <path d="M 261.588776 250.234068 
L 230.261957 228.599234 
" clip-path="url(#p806a458ed6)" style="fill: none; stroke-dasharray: 2.96,1.28; stroke-dashoffset: 0; stroke: #1f77b4; stroke-opacity: 0.4; stroke-width: 0.8"/>
   </g>
   <g id="line2d_29">
    <path d="M 216.474383 219.859387 
L 184.992239 198.444798 
" clip-path="url(#p806a458ed6)" style="fill: none; stroke-dasharray: 2.96,1.28; stroke-dashoffset: 0; stroke: #1f77b4; stroke-opacity: 0.4; stroke-width: 0.8"/>
   </g>
   <g id="line2d_30">
    <path d="M 170.19392 191.896718 
L 134.017016 202.221364 
" clip-path="url(#p806a458ed6)" style="fill: none; stroke-dasharray: 2.96,1.28; stroke-dashoffset: 0; stroke: #1f77b4; stroke-opacity: 0.4; stroke-width: 0.8"/>
   </g>
   <g id="line2d_31">
    <path d="M 119.204994 209.085876 
L 86.669873 228.43526 
" clip-path="url(#p806a458ed6)" style="fill: none; stroke-dasharray: 2.96,1.28; stroke-dashoffset: 0; stroke: #1f77b4; stroke-opacity: 0.4; stroke-width: 0.8"/>
   </g>
   <g id="line2d_32">
    <path d="M 79.814876 242.400021 
L 79.814876 280.492658 
" clip-path="url(#p806a458ed6)" style="fill: none; stroke-dasharray: 2.96,1.28; stroke-dashoffset: 0; stroke: #1f77b4; stroke-opacity: 0.4; stroke-width: 0.8"/>
   </g>
   <g id="patch_3">
    <path d="M 56.18 534.04 
L 56.18 25.44 
" style="fill: none; stroke: #000000; stroke-width: 0.8; stroke-linejoin: miter; stroke-linecap: square"/>
   </g>
   <g id="patch_4">
    <path d="M 576.147273 534.04 
L 576.147273 25.44 
" style="fill: none; stroke: #000000; stroke-width: 0.8; stroke-linejoin: miter; stroke-linecap: square"/>
   </g>
   <g id="patch_5">
    <path d="M 56.18 534.04 
L 576.147273 534.04 
" style="fill: none; stroke: #000000; stroke-width: 0.8; stroke-linejoin: miter; stroke-linecap: square"/>
   </g>
   <g id="patch_6">
    <path d="M 56.18 25.44 
L 576.147273 25.44 
" style="fill: none; stroke: #000000; stroke-width: 0.8; stroke-linejoin: miter; stroke-linecap: square"/>
   </g>
   <g id="text_13">
    <!--  slope1_smooth start -->
    <g transform="translate(552.512397 355.171639)scale(0.08 -0.08)">
     <defs>
      <path id="DejaVuSans-73" d="M 2834 3397 
L 2834 2853 
Q 2591 2978 2328 3040 
Q 2066 3103 1784 3103 
Q 1356 3103 1142 2972 
Q 928 2841 928 2578 
Q 928 2378 1081 2264 
Q 1234 2150 1697 2047 
L 1894 2003 
Q 2506 1872 2764 1633 
Q 3022 1394 3022 966 
Q 3022 478 2636 193 
Q 2250 -91 1575 -91 
Q 1294 -91 989 -36 
Q 684 19 347 128 
L 347 722 
Q 666 556 975 473 
Q 1284 391 1588 391 
Q 1994 391 2212 530 
Q 2431 669 2431 922 
Q 2431 1156 2273 1281 
Q 2116 1406 1581 1522 
L 1381 1569 
Q 847 1681 609 1914 
Q 372 2147 372 2553 
Q 372 3047 722 3315 
Q 1072 3584 1716 3584 
Q 2034 3584 2315 3537 
Q 2597 3491 2834 3397 
z
" transform="scale(0.015625)"/>
      <path id="DejaVuSans-6c" d="M 603 4863 
L 1178 4863 
L 1178 0 
L 603 0 
L 603 4863 
z
" transform="scale(0.015625)"/>
      <path id="DejaVuSans-6f" d="M 1959 3097 
Q 1497 3097 1228 2736 
Q 959 2375 959 1747 
Q 959 1119 1226 758 
Q 1494 397 1959 397 
Q 2419 397 2687 759 
Q 2956 1122 2956 1747 
Q 2956 2369 2687 2733 
Q 2419 3097 1959 3097 
z
M 1959 3584 
Q 2709 3584 3137 3096 
Q 3566 2609 3566 1747 
Q 3566 888 3137 398 
Q 2709 -91 1959 -91 
Q 1206 -91 779 398 
Q 353 888 353 1747 
Q 353 2609 779 3096 
Q 1206 3584 1959 3584 
z
" transform="scale(0.015625)"/>
      <path id="DejaVuSans-70" d="M 1159 525 
L 1159 -1331 
L 581 -1331 
L 581 3500 
L 1159 3500 
L 1159 2969 
Q 1341 3281 1617 3432 
Q 1894 3584 2278 3584 
Q 2916 3584 3314 3078 
Q 3713 2572 3713 1747 
Q 3713 922 3314 415 
Q 2916 -91 2278 -91 
Q 1894 -91 1617 61 
Q 1341 213 1159 525 
z
M 3116 1747 
Q 3116 2381 2855 2742 
Q 2594 3103 2138 3103 
Q 1681 3103 1420 2742 
Q 1159 2381 1159 1747 
Q 1159 1113 1420 752 
Q 1681 391 2138 391 
Q 2594 391 2855 752 
Q 3116 1113 3116 1747 
z
" transform="scale(0.015625)"/>
      <path id="DejaVuSans-65" d="M 3597 1894 
L 3597 1613 
L 953 1613 
Q 991 1019 1311 708 
Q 1631 397 2203 397 
Q 2534 397 2845 478 
Q 3156 559 3463 722 
L 3463 178 
Q 3153 47 2828 -22 
Q 2503 -91 2169 -91 
Q 1331 -91 842 396 
Q 353 884 353 1716 
Q 353 2575 817 3079 
Q 1281 3584 2069 3584 
Q 2775 3584 3186 3129 
Q 3597 2675 3597 1894 
z
M 3022 2063 
Q 3016 2534 2758 2815 
Q 2500 3097 2075 3097 
Q 1594 3097 1305 2825 
Q 1016 2553 972 2059 
L 3022 2063 
z
" transform="scale(0.015625)"/>
      <path id="DejaVuSans-5f" d="M 3263 -1063 
L 3263 -1509 
L -63 -1509 
L -63 -1063 
L 3263 -1063 
z
" transform="scale(0.015625)"/>
      <path id="DejaVuSans-74" d="M 1172 4494 
L 1172 3500 
L 2356 3500 
L 2356 3053 
L 1172 3053 
L 1172 1153 
Q 1172 725 1289 603 
Q 1406 481 1766 481 
L 2356 481 
L 2356 0 
L 1766 0 
Q 1100 0 847 248 
Q 594 497 594 1153 
L 594 3053 
L 172 3053 
L 172 3500 
L 594 3500 
L 594 4494 
L 1172 4494 
z
" transform="scale(0.015625)"/>
      <path id="DejaVuSans-68" d="M 3513 2113 
L 3513 0 
L 2938 0 
L 2938 2094 
Q 2938 2591 2744 2837 
Q 2550 3084 2163 3084 
Q 1697 3084 1428 2787 
Q 1159 2491 1159 1978 
L 1159 0 
L 581 0 
L 581 4863 
L 1159 4863 
L 1159 2956 
Q 1366 3272 1645 3428 
Q 1925 3584 2291 3584 
Q 2894 3584 3203 3211 
Q 3513 2838 3513 2113 
z
" transform="scale(0.015625)"/>
      <path id="DejaVuSans-61" d="M 2194 1759 
Q 1497 1759 1228 1600 
Q 959 1441 959 1056 
Q 959 750 1161 570 
Q 1363 391 1709 391 
Q 2188 391 2477 730 
Q 2766 1069 2766 1631 
L 2766 1759 
L 2194 1759 
z
M 3341 1997 
L 3341 0 
L 2766 0 
L 2766 531 
Q 2569 213 2275 61 
Q 1981 -91 1556 -91 
Q 1019 -91 701 211 
Q 384 513 384 1019 
Q 384 1609 779 1909 
Q 1175 2209 1959 2209 
L 2766 2209 
L 2766 2266 
Q 2766 2663 2505 2880 
Q 2244 3097 1772 3097 
Q 1472 3097 1187 3025 
Q 903 2953 641 2809 
L 641 3341 
Q 956 3463 1253 3523 
Q 1550 3584 1831 3584 
Q 2591 3584 2966 3190 
Q 3341 2797 3341 1997 
z
" transform="scale(0.015625)"/>
      <path id="DejaVuSans-72" d="M 2631 2963 
Q 2534 3019 2420 3045 
Q 2306 3072 2169 3072 
Q 1681 3072 1420 2755 
Q 1159 2438 1159 1844 
L 1159 0 
L 581 0 
L 581 3500 
L 1159 3500 
L 1159 2956 
Q 1341 3275 1631 3429 
Q 1922 3584 2338 3584 
Q 2397 3584 2469 3576 
Q 2541 3569 2628 3553 
L 2631 2963 
z
" transform="scale(0.015625)"/>
     </defs>
     <use xlink:href="#DejaVuSans-20"/>
     <use xlink:href="#DejaVuSans-73" x="31.787109"/>
     <use xlink:href="#DejaVuSans-6c" x="83.886719"/>
     <use xlink:href="#DejaVuSans-6f" x="111.669922"/>
     <use xlink:href="#DejaVuSans-70" x="172.851562"/>
     <use xlink:href="#DejaVuSans-65" x="236.328125"/>
     <use xlink:href="#DejaVuSans-31" x="297.851562"/>
     <use xlink:href="#DejaVuSans-5f" x="361.474609"/>
     <use xlink:href="#DejaVuSans-73" x="411.474609"/>
     <use xlink:href="#DejaVuSans-6d" x="463.574219"/>
     <use xlink:href="#DejaVuSans-6f" x="560.986328"/>
     <use xlink:href="#DejaVuSans-6f" x="622.167969"/>
     <use xlink:href="#DejaVuSans-74" x="683.349609"/>
     <use xlink:href="#DejaVuSans-68" x="722.558594"/>
     <use xlink:href="#DejaVuSans-20" x="785.9375"/>
     <use xlink:href="#DejaVuSans-73" x="817.724609"/>
     <use xlink:href="#DejaVuSans-74" x="869.824219"/>
     <use xlink:href="#DejaVuSans-61" x="909.033203"/>
     <use xlink:href="#DejaVuSans-72" x="970.3125"/>
     <use xlink:href="#DejaVuSans-74" x="1011.425781"/>
    </g>
   </g>
   <g id="text_14">
    <!--  slope1_smooth end -->
    <g transform="translate(79.814876 292.123753)scale(0.08 -0.08)">
     <defs>
      <path id="DejaVuSans-6e" d="M 3513 2113 
L 3513 0 
L 2938 0 
L 2938 2094 
Q 2938 2591 2744 2837 
Q 2550 3084 2163 3084 
Q 1697 3084 1428 2787 
Q 1159 2491 1159 1978 
L 1159 0 
L 581 0 
L 581 3500 
L 1159 3500 
L 1159 2956 
Q 1366 3272 1645 3428 
Q 1925 3584 2291 3584 
Q 2894 3584 3203 3211 
Q 3513 2838 3513 2113 
z
" transform="scale(0.015625)"/>
      <path id="DejaVuSans-64" d="M 2906 2969 
L 2906 4863 
L 3481 4863 
L 3481 0 
L 2906 0 
L 2906 525 
Q 2725 213 2448 61 
Q 2172 -91 1784 -91 
Q 1150 -91 751 415 
Q 353 922 353 1747 
Q 353 2572 751 3078 
Q 1150 3584 1784 3584 
Q 2172 3584 2448 3432 
Q 2725 3281 2906 2969 
z
M 947 1747 
Q 947 1113 1208 752 
Q 1469 391 1925 391 
Q 2381 391 2643 752 
Q 2906 1113 2906 1747 
Q 2906 2381 2643 2742 
Q 2381 3103 1925 3103 
Q 1469 3103 1208 2742 
Q 947 2381 947 1747 
z
" transform="scale(0.015625)"/>
     </defs>
     <use xlink:href="#DejaVuSans-20"/>
     <use xlink:href="#DejaVuSans-73" x="31.787109"/>
     <use xlink:href="#DejaVuSans-6c" x="83.886719"/>
     <use xlink:href="#DejaVuSans-6f" x="111.669922"/>
     <use xlink:href="#DejaVuSans-70" x="172.851562"/>
     <use xlink:href="#DejaVuSans-65" x="236.328125"/>
     <use xlink:href="#DejaVuSans-31" x="297.851562"/>
     <use xlink:href="#DejaVuSans-5f" x="361.474609"/>
     <use xlink:href="#DejaVuSans-73" x="411.474609"/>
     <use xlink:href="#DejaVuSans-6d" x="463.574219"/>
     <use xlink:href="#DejaVuSans-6f" x="560.986328"/>
     <use xlink:href="#DejaVuSans-6f" x="622.167969"/>
     <use xlink:href="#DejaVuSans-74" x="683.349609"/>
     <use xlink:href="#DejaVuSans-68" x="722.558594"/>
     <use xlink:href="#DejaVuSans-20" x="785.9375"/>
     <use xlink:href="#DejaVuSans-65" x="817.724609"/>
     <use xlink:href="#DejaVuSans-6e" x="879.248047"/>
     <use xlink:href="#DejaVuSans-64" x="942.626953"/>
    </g>
   </g>
   <g id="text_15">
    <g id="patch_7">
     <path d="M 61.379673 532.104 
L 274.28311 532.104 
Q 277.43311 532.104 277.43311 528.954 
L 277.43311 519.993375 
Q 277.43311 516.843375 274.28311 516.843375 
L 61.379673 516.843375 
Q 58.229673 516.843375 58.229673 519.993375 
L 58.229673 528.954 
Q 58.229673 532.104 61.379673 532.104 
z
" style="fill: #ffffff; opacity: 0.8; stroke: #cccccc; stroke-linejoin: miter"/>
    </g>
    <!-- slope1_smooth: n=120 len=5.47m avg=0.05m -->
    <g transform="translate(61.379673 526.831969)scale(0.09 -0.09)">
     <defs>
      <path id="DejaVuSans-3a" d="M 750 794 
L 1409 794 
L 1409 0 
L 750 0 
L 750 794 
z
M 750 3309 
L 1409 3309 
L 1409 2516 
L 750 2516 
L 750 3309 
z
" transform="scale(0.015625)"/>
      <path id="DejaVuSans-3d" d="M 678 2906 
L 4684 2906 
L 4684 2381 
L 678 2381 
L 678 2906 
z
M 678 1631 
L 4684 1631 
L 4684 1100 
L 678 1100 
L 678 1631 
z
" transform="scale(0.015625)"/>
      <path id="DejaVuSans-2e" d="M 684 794 
L 1344 794 
L 1344 0 
L 684 0 
L 684 794 
z
" transform="scale(0.015625)"/>
      <path id="DejaVuSans-37" d="M 525 4666 
L 3525 4666 
L 3525 4397 
L 1831 0 
L 1172 0 
L 2766 4134 
L 525 4134 
L 525 4666 
z
" transform="scale(0.015625)"/>
      <path id="DejaVuSans-76" d="M 191 3500 
L 800 3500 
L 1894 563 
L 2988 3500 
L 3597 3500 
L 2284 0 
L 1503 0 
L 191 3500 
z
" transform="scale(0.015625)"/>
      <path id="DejaVuSans-67" d="M 2906 1791 
Q 2906 2416 2648 2759 
Q 2391 3103 1925 3103 
Q 1463 3103 1205 2759 
Q 947 2416 947 1791 
Q 947 1169 1205 825 
Q 1463 481 1925 481 
Q 2391 481 2648 825 
Q 2906 1169 2906 1791 
z
M 3481 434 
Q 3481 -459 3084 -895 
Q 2688 -1331 1869 -1331 
Q 1566 -1331 1297 -1286 
Q 1028 -1241 775 -1147 
L 775 -588 
Q 1028 -725 1275 -790 
Q 1522 -856 1778 -856 
Q 2344 -856 2625 -561 
Q 2906 -266 2906 331 
L 2906 616 
Q 2728 306 2450 153 
Q 2172 0 1784 0 
Q 1141 0 747 490 
Q 353 981 353 1791 
Q 353 2603 747 3093 
Q 1141 3584 1784 3584 
Q 2172 3584 2450 3431 
Q 2728 3278 2906 2969 
L 2906 3500 
L 3481 3500 
L 3481 434 
z
" transform="scale(0.015625)"/>
     </defs>
     <use xlink:href="#DejaVuSans-73"/>
     <use xlink:href="#DejaVuSans-6c" x="52.099609"/>
     <use xlink:href="#DejaVuSans-6f" x="79.882812"/>
     <use xlink:href="#DejaVuSans-70" x="141.064453"/>
     <use xlink:href="#DejaVuSans-65" x="204.541016"/>
     <use xlink:href="#DejaVuSans-31" x="266.064453"/>
     <use xlink:href="#DejaVuSans-5f" x="329.6875"/>
     <use xlink:href="#DejaVuSans-73" x="379.6875"/>
     <use xlink:href="#DejaVuSans-6d" x="431.787109"/>
     <use xlink:href="#DejaVuSans-6f" x="529.199219"/>
     <use xlink:href="#DejaVuSans-6f" x="590.380859"/>
     <use xlink:href="#DejaVuSans-74" x="651.5625"/>
     <use xlink:href="#DejaVuSans-68" x="690.771484"/>
     <use xlink:href="#DejaVuSans-3a" x="754.150391"/>
     <use xlink:href="#DejaVuSans-20" x="787.841797"/>
     <use xlink:href="#DejaVuSans-6e" x="819.628906"/>
     <use xlink:href="#DejaVuSans-3d" x="883.007812"/>
     <use xlink:href="#DejaVuSans-31" x="966.796875"/>
     <use xlink:href="#DejaVuSans-32" x="1030.419922"/>
     <use xlink:href="#DejaVuSans-30" x="1094.042969"/>
     <use xlink:href="#DejaVuSans-20" x="1157.666016"/>
     <use xlink:href="#DejaVuSans-6c" x="1189.453125"/>
     <use xlink:href="#DejaVuSans-65" x="1217.236328"/>
     <use xlink:href="#DejaVuSans-6e" x="1278.759766"/>
     <use xlink:href="#DejaVuSans-3d" x="1342.138672"/>
     <use xlink:href="#DejaVuSans-35" x="1425.927734"/>
     <use xlink:href="#DejaVuSans-2e" x="1489.550781"/>
     <use xlink:href="#DejaVuSans-34" x="1521.337891"/>
     <use xlink:href="#DejaVuSans-37" x="1584.960938"/>
     <use xlink:href="#DejaVuSans-6d" x="1648.583984"/>
     <use xlink:href="#DejaVuSans-20" x="1745.996094"/>
     <use xlink:href="#DejaVuSans-61" x="1777.783203"/>
     <use xlink:href="#DejaVuSans-76" x="1839.0625"/>
     <use xlink:href="#DejaVuSans-67" x="1898.242188"/>
     <use xlink:href="#DejaVuSans-3d" x="1961.71875"/>
     <use xlink:href="#DejaVuSans-30" x="2045.507812"/>
     <use xlink:href="#DejaVuSans-2e" x="2109.130859"/>
     <use xlink:href="#DejaVuSans-30" x="2140.917969"/>
     <use xlink:href="#DejaVuSans-35" x="2204.541016"/>
     <use xlink:href="#DejaVuSans-6d" x="2268.164062"/>
    </g>
   </g>
   <g id="text_16">
    <!-- Trajectory lookahead visualization (forward, lookahead=0.35 m, arrows=body heading) -->
    <g transform="translate(53.713324 19.44)scale(0.12 -0.12)">
     <defs>
      <path id="DejaVuSans-54" d="M -19 4666 
L 3928 4666 
L 3928 4134 
L 2272 4134 
L 2272 0 
L 1638 0 
L 1638 4134 
L -19 4134 
L -19 4666 
z
" transform="scale(0.015625)"/>
      <path id="DejaVuSans-6a" d="M 603 3500 
L 1178 3500 
L 1178 -63 
Q 1178 -731 923 -1031 
Q 669 -1331 103 -1331 
L -116 -1331 
L -116 -844 
L 38 -844 
Q 366 -844 484 -692 
Q 603 -541 603 -63 
L 603 3500 
z
M 603 4863 
L 1178 4863 
L 1178 4134 
L 603 4134 
L 603 4863 
z
" transform="scale(0.015625)"/>
      <path id="DejaVuSans-63" d="M 3122 3366 
L 3122 2828 
Q 2878 2963 2633 3030 
Q 2388 3097 2138 3097 
Q 1578 3097 1268 2742 
Q 959 2388 959 1747 
Q 959 1106 1268 751 
Q 1578 397 2138 397 
Q 2388 397 2633 464 
Q 2878 531 3122 666 
L 3122 134 
Q 2881 22 2623 -34 
Q 2366 -91 2075 -91 
Q 1284 -91 818 406 
Q 353 903 353 1747 
Q 353 2603 823 3093 
Q 1294 3584 2113 3584 
Q 2378 3584 2631 3529 
Q 2884 3475 3122 3366 
z
" transform="scale(0.015625)"/>
      <path id="DejaVuSans-6b" d="M 581 4863 
L 1159 4863 
L 1159 1991 
L 2875 3500 
L 3609 3500 
L 1753 1863 
L 3688 0 
L 2938 0 
L 1159 1709 
L 1159 0 
L 581 0 
L 581 4863 
z
" transform="scale(0.015625)"/>
      <path id="DejaVuSans-69" d="M 603 3500 
L 1178 3500 
L 1178 0 
L 603 0 
L 603 3500 
z
M 603 4863 
L 1178 4863 
L 1178 4134 
L 603 4134 
L 603 4863 
z
" transform="scale(0.015625)"/>
      <path id="DejaVuSans-75" d="M 544 1381 
L 544 3500 
L 1119 3500 
L 1119 1403 
Q 1119 906 1312 657 
Q 1506 409 1894 409 
Q 2359 409 2629 706 
Q 2900 1003 2900 1516 
L 2900 3500 
L 3475 3500 
L 3475 0 
L 2900 0 
L 2900 538 
Q 2691 219 2414 64 
Q 2138 -91 1772 -91 
Q 1169 -91 856 284 
Q 544 659 544 1381 
z
M 1991 3584 
L 1991 3584 
z
" transform="scale(0.015625)"/>
      <path id="DejaVuSans-7a" d="M 353 3500 
L 3084 3500 
L 3084 2975 
L 922 459 
L 3084 459 
L 3084 0 
L 275 0 
L 275 525 
L 2438 3041 
L 353 3041 
L 353 3500 
z
" transform="scale(0.015625)"/>
      <path id="DejaVuSans-66" d="M 2375 4863 
L 2375 4384 
L 1825 4384 
Q 1516 4384 1395 4259 
Q 1275 4134 1275 3809 
L 1275 3500 
L 2222 3500 
L 2222 3053 
L 1275 3053 
L 1275 0 
L 697 0 
L 697 3053 
L 147 3053 
L 147 3500 
L 697 3500 
L 697 3744 
Q 697 4328 969 4595 
Q 1241 4863 1831 4863 
L 2375 4863 
z
" transform="scale(0.015625)"/>
      <path id="DejaVuSans-77" d="M 269 3500 
L 844 3500 
L 1563 769 
L 2278 3500 
L 2956 3500 
L 3675 769 
L 4391 3500 
L 4966 3500 
L 4050 0 
L 3372 0 
L 2619 2869 
L 1863 0 
L 1184 0 
L 269 3500 
z
" transform="scale(0.015625)"/>
      <path id="DejaVuSans-2c" d="M 750 794 
L 1409 794 
L 1409 256 
L 897 -744 
L 494 -744 
L 750 256 
L 750 794 
z
" transform="scale(0.015625)"/>
      <path id="DejaVuSans-62" d="M 3116 1747 
Q 3116 2381 2855 2742 
Q 2594 3103 2138 3103 
Q 1681 3103 1420 2742 
Q 1159 2381 1159 1747 
Q 1159 1113 1420 752 
Q 1681 391 2138 391 
Q 2594 391 2855 752 
Q 3116 1113 3116 1747 
z
M 1159 2969 
Q 1341 3281 1617 3432 
Q 1894 3584 2278 3584 
Q 2916 3584 3314 3078 
Q 3713 2572 3713 1747 
Q 3713 922 3314 415 
Q 2916 -91 2278 -91 
Q 1894 -91 1617 61 
Q 1341 213 1159 525 
L 1159 0 
L 581 0 
L 581 4863 
L 1159 4863 
L 1159 2969 
z
" transform="scale(0.015625)"/>
     </defs>
     <use xlink:href="#DejaVuSans-54"/>
     <use xlink:href="#DejaVuSans-72" x="46.333984"/>
     <use xlink:href="#DejaVuSans-61" x="87.447266"/>
     <use xlink:href="#DejaVuSans-6a" x="148.726562"/>
     <use xlink:href="#DejaVuSans-65" x="176.509766"/>
     <use xlink:href="#DejaVuSans-63" x="238.033203"/>
     <use xlink:href="#DejaVuSans-74" x="293.013672"/>
     <use xlink:href="#DejaVuSans-6f" x="332.222656"/>
     <use xlink:href="#DejaVuSans-72" x="393.404297"/>
     <use xlink:href="#DejaVuSans-79" x="434.517578"/>
     <use xlink:href="#DejaVuSans-20" x="493.697266"/>
     <use xlink:href="#DejaVuSans-6c" x="525.484375"/>
     <use xlink:href="#DejaVuSans-6f" x="553.267578"/>
     <use xlink:href="#DejaVuSans-6f" x="614.449219"/>
     <use xlink:href="#DejaVuSans-6b" x="675.630859"/>
     <use xlink:href="#DejaVuSans-61" x="731.791016"/>
     <use xlink:href="#DejaVuSans-68" x="793.070312"/>
     <use xlink:href="#DejaVuSans-65" x="856.449219"/>
     <use xlink:href="#DejaVuSans-61" x="917.972656"/>
     <use xlink:href="#DejaVuSans-64" x="979.251953"/>
     <use xlink:href="#DejaVuSans-20" x="1042.728516"/>
     <use xlink:href="#DejaVuSans-76" x="1074.515625"/>
     <use xlink:href="#DejaVuSans-69" x="1133.695312"/>
     <use xlink:href="#DejaVuSans-73" x="1161.478516"/>
     <use xlink:href="#DejaVuSans-75" x="1213.578125"/>
     <use xlink:href="#DejaVuSans-61" x="1276.957031"/>
     <use xlink:href="#DejaVuSans-6c" x="1338.236328"/>
     <use xlink:href="#DejaVuSans-69" x="1366.019531"/>
     <use xlink:href="#DejaVuSans-7a" x="1393.802734"/>
     <use xlink:href="#DejaVuSans-61" x="1446.292969"/>
     <use xlink:href="#DejaVuSans-74" x="1507.572266"/>
     <use xlink:href="#DejaVuSans-69" x="1546.78125"/>
     <use xlink:href="#DejaVuSans-6f" x="1574.564453"/>
     <use xlink:href="#DejaVuSans-6e" x="1635.746094"/>
     <use xlink:href="#DejaVuSans-20" x="1699.125"/>
     <use xlink:href="#DejaVuSans-28" x="1730.912109"/>
     <use xlink:href="#DejaVuSans-66" x="1769.925781"/>
     <use xlink:href="#DejaVuSans-6f" x="1805.130859"/>
     <use xlink:href="#DejaVuSans-72" x="1866.3125"/>
     <use xlink:href="#DejaVuSans-77" x="1907.425781"/>
     <use xlink:href="#DejaVuSans-61" x="1989.212891"/>
     <use xlink:href="#DejaVuSans-72" x="2050.492188"/>
     <use xlink:href="#DejaVuSans-64" x="2089.855469"/>
     <use xlink:href="#DejaVuSans-2c" x="2153.332031"/>
     <use xlink:href="#DejaVuSans-20" x="2185.119141"/>
     <use xlink:href="#DejaVuSans-6c" x="2216.90625"/>
     <use xlink:href="#DejaVuSans-6f" x="2244.689453"/>
     <use xlink:href="#DejaVuSans-6f" x="2305.871094"/>
     <use xlink:href="#DejaVuSans-6b" x="2367.052734"/>
     <use xlink:href="#DejaVuSans-61" x="2423.212891"/>
     <use xlink:href="#DejaVuSans-68" x="2484.492188"/>
     <use xlink:href="#DejaVuSans-65" x="2547.871094"/>
     <use xlink:href="#DejaVuSans-61" x="2609.394531"/>
     <use xlink:href="#DejaVuSans-64" x="2670.673828"/>
     <use xlink:href="#DejaVuSans-3d" x="2734.150391"/>
     <use xlink:href="#DejaVuSans-30" x="2817.939453"/>
     <use xlink:href="#DejaVuSans-2e" x="2881.5625"/>
     <use xlink:href="#DejaVuSans-33" x="2913.349609"/>
     <use xlink:href="#DejaVuSans-35" x="2976.972656"/>
     <use xlink:href="#DejaVuSans-20" x="3040.595703"/>
     <use xlink:href="#DejaVuSans-6d" x="3072.382812"/>
     <use xlink:href="#DejaVuSans-2c" x="3169.794922"/>
     <use xlink:href="#DejaVuSans-20" x="3201.582031"/>
     <use xlink:href="#DejaVuSans-61" x="3233.369141"/>
     <use xlink:href="#DejaVuSans-72" x="3294.648438"/>
     <use xlink:href="#DejaVuSans-72" x="3334.011719"/>
     <use xlink:href="#DejaVuSans-6f" x="3372.875"/>
     <use xlink:href="#DejaVuSans-77" x="3434.056641"/>
     <use xlink:href="#DejaVuSans-73" x="3515.84375"/>
     <use xlink:href="#DejaVuSans-3d" x="3567.943359"/>
     <use xlink:href="#DejaVuSans-62" x="3651.732422"/>
     <use xlink:href="#DejaVuSans-6f" x="3715.208984"/>
     <use xlink:href="#DejaVuSans-64" x="3776.390625"/>
     <use xlink:href="#DejaVuSans-79" x="3839.867188"/>
     <use xlink:href="#DejaVuSans-20" x="3899.046875"/>
     <use xlink:href="#DejaVuSans-68" x="3930.833984"/>
     <use xlink:href="#DejaVuSans-65" x="3994.212891"/>
     <use xlink:href="#DejaVuSans-61" x="4055.736328"/>
     <use xlink:href="#DejaVuSans-64" x="4117.015625"/>
     <use xlink:href="#DejaVuSans-69" x="4180.492188"/>
     <use xlink:href="#DejaVuSans-6e" x="4208.275391"/>
     <use xlink:href="#DejaVuSans-67" x="4271.654297"/>
     <use xlink:href="#DejaVuSans-29" x="4335.130859"/>
    </g>
   </g>
   <g id="legend_1">
    <g id="patch_8">
     <path d="M 461.731648 77.7525 
L 569.147273 77.7525 
Q 571.147273 77.7525 571.147273 75.7525 
L 571.147273 32.44 
Q 571.147273 30.44 569.147273 30.44 
L 461.731648 30.44 
Q 459.731648 30.44 459.731648 32.44 
L 459.731648 75.7525 
Q 459.731648 77.7525 461.731648 77.7525 
z
" style="fill: #ffffff; opacity: 0.8; stroke: #cccccc; stroke-linejoin: miter"/>
    </g>
    <g id="line2d_33">
     <path d="M 463.731648 38.538437 
L 473.731648 38.538437 
L 483.731648 38.538437 
" style="fill: none; stroke: #1f77b4; stroke-width: 2; stroke-linecap: square"/>
    </g>
    <g id="text_17">
     <!-- slope1_smooth -->
     <g transform="translate(491.731648 42.038437)scale(0.1 -0.1)">
      <use xlink:href="#DejaVuSans-73"/>
      <use xlink:href="#DejaVuSans-6c" x="52.099609"/>
      <use xlink:href="#DejaVuSans-6f" x="79.882812"/>
      <use xlink:href="#DejaVuSans-70" x="141.064453"/>
      <use xlink:href="#DejaVuSans-65" x="204.541016"/>
      <use xlink:href="#DejaVuSans-31" x="266.064453"/>
      <use xlink:href="#DejaVuSans-5f" x="329.6875"/>
      <use xlink:href="#DejaVuSans-73" x="379.6875"/>
      <use xlink:href="#DejaVuSans-6d" x="431.787109"/>
      <use xlink:href="#DejaVuSans-6f" x="529.199219"/>
      <use xlink:href="#DejaVuSans-6f" x="590.380859"/>
      <use xlink:href="#DejaVuSans-74" x="651.5625"/>
      <use xlink:href="#DejaVuSans-68" x="690.771484"/>
     </g>
    </g>
    <g id="PathCollection_5">
     <defs>
      <path id="mac615057e2" d="M 0 3.708099 
C 0.983399 3.708099 1.926654 3.317391 2.622022 2.622022 
C 3.317391 1.926654 3.708099 0.983399 3.708099 0 
C 3.708099 -0.983399 3.317391 -1.926654 2.622022 -2.622022 
C 1.926654 -3.317391 0.983399 -3.708099 0 -3.708099 
C -0.983399 -3.708099 -1.926654 -3.317391 -2.622022 -2.622022 
C -3.317391 -1.926654 -3.708099 -0.983399 -3.708099 0 
C -3.708099 0.983399 -3.317391 1.926654 -2.622022 2.622022 
C -1.926654 3.317391 -0.983399 3.708099 0 3.708099 
z
" style="stroke: #000000"/>
     </defs>
     <g>
      <use xlink:href="#mac615057e2" x="473.731648" y="54.369687" style="stroke: #000000"/>
     </g>
    </g>
    <g id="text_18">
     <!-- start -->
     <g transform="translate(491.731648 56.994687)scale(0.1 -0.1)">
      <use xlink:href="#DejaVuSans-73"/>
      <use xlink:href="#DejaVuSans-74" x="52.099609"/>
      <use xlink:href="#DejaVuSans-61" x="91.308594"/>
      <use xlink:href="#DejaVuSans-72" x="152.587891"/>
      <use xlink:href="#DejaVuSans-74" x="193.701172"/>
     </g>
    </g>
    <g id="PathCollection_6">
     <defs>
      <path id="m1a19db600e" d="M -3.708099 3.708099 
L 3.708099 3.708099 
L 3.708099 -3.708099 
L -3.708099 -3.708099 
z
" style="stroke: #000000"/>
     </defs>
     <g>
      <use xlink:href="#m1a19db600e" x="473.731648" y="69.047812" style="stroke: #000000"/>
     </g>
    </g>
    <g id="text_19">
     <!-- end -->
     <g transform="translate(491.731648 71.672812)scale(0.1 -0.1)">
      <use xlink:href="#DejaVuSans-65"/>
      <use xlink:href="#DejaVuSans-6e" x="61.523438"/>
      <use xlink:href="#DejaVuSans-64" x="124.902344"/>
     </g>
    </g>
   </g>
  </g>
 </g>
 <defs>
  <clipPath id="p806a458ed6">
   <rect x="56.18" y="25.44" width="519.967273" height="508.6"/>
  </clipPath>
 </defs>
</svg>
