ISO-10303-21;
HEADER;
FILE_DESCRIPTION(
  ('This file contains a STEP AP42 implementation'
    ,'as created by ZW3D STEP Interface translator.')
  ,'2;1'
  );
FILE_NAME(
  '8mm多功能法兰联轴器.stp'
  ,'24 514.1353 2',
  (''),
  ('ZWCAD Software Co.'),
  'Version 1.0',
  'ZW3D to STEP translator',
  ''
  );
FILE_SCHEMA(('AUTOMOTIVE_DESIGN { 1 0 10303 214 1 1 1 1 }'));
ENDSEC;

DATA;

/**File Base Unit**/
#1 = (LENGTH_UNIT()NAMED_UNIT(*)SI_UNIT(.MILLI.,.METRE.));
#2 = (NAMED_UNIT(*)PLANE_ANGLE_UNIT()SI_UNIT($,.RADIAN.));
#3 = (NAMED_UNIT(*)SI_UNIT($,.STERADIAN.)SOLID_ANGLE_UNIT());
#4 = UNCERTAINTY_MEASURE_WITH_UNIT(LENGTH_MEASURE(0.01),#1,'DISTANCE_ACCURACY_VALUE','Maximum Tolerance applied to model');
#5 = (GEOMETRIC_REPRESENTATION_CONTEXT(3)GLOBAL_UNCERTAINTY_ASSIGNED_CONTEXT((#4))GLOBAL_UNIT_ASSIGNED_CONTEXT((#1,#2,#3))REPRESENTATION_CONTEXT('STEP 203','TOP_LEVEL_ASSEMBLY_PART'));

/**product_definition_shape**/
#6=APPLICATION_CONTEXT('mechanical parts and assemblies' );
#7=DESIGN_CONTEXT('NONE',#6,'design');
#8=MECHANICAL_CONTEXT('NONE',#6,'mechanical');
#9=PRODUCT('0','Part','',(#8));
#10=PRODUCT_DEFINITION_FORMATION_WITH_SPECIFIED_SOURCE('ANY','',#9,.NOT_KNOWN.);
#11=PRODUCT_DEFINITION('UNKNOWN','',#10,#7);
#12=PRODUCT_DEFINITION_SHAPE('NONE','NONE',#11);
#13=PRODUCT_RELATED_PRODUCT_CATEGORY('detail','',(#9));
/**geometry information**/
#14=CARTESIAN_POINT('',(0.,0.,0.));
#15=DIRECTION('',(0.,0.,1.));
#16=DIRECTION('',(1.,0.,0.));
#17=AXIS2_PLACEMENT_3D('',#14,#15,#16);
#18=APPLICATION_CONTEXT('part');
#19=MECHANICAL_CONTEXT('none',#18,'component');
#20=PRODUCT('8mm多功能法兰联轴器','8mm多功能法兰联轴器','',(#19));
#21=PRODUCT_RELATED_PRODUCT_CATEGORY('detail','',(#20));
#22=PRODUCT_DEFINITION_FORMATION_WITH_SPECIFIED_SOURCE('ANY','UNSPECIFIED',#20,.NOT_KNOWN.);
#23=APPLICATION_CONTEXT('part');
#24=APPLICATION_PROTOCOL_DEFINITION('international standard','config_control_design',1994,#23);
#25=DESIGN_CONTEXT('detailed',#23,'design');
#26=PRODUCT_DEFINITION('','UNSPECIFIED',#22,#25);
#27=PRODUCT_DEFINITION_SHAPE('NONE','NONE',#26);
#28=SHAPE_REPRESENTATION('8mm多功能法兰联轴器',(#17),#5);
#29=SHAPE_DEFINITION_REPRESENTATION(#27,#28);
#30=CARTESIAN_POINT('',(-3.7512886940357,-7.105427357601E-15,0.));
#31=DIRECTION('',(1.,0.,0.));
#32=DIRECTION('',(0.,0.,-1.));
#33=AXIS2_PLACEMENT_3D('',#30,#32,#31);
#34=PLANE('',#33);
#35=CARTESIAN_POINT('',(13.9,0.,8.3266726846887E-16));
#36=VERTEX_POINT('',#35);
#37=CARTESIAN_POINT('',(-1.7763568394003E-15,1.256073966947E-15,-2.2398328972061E-15));
#38=DIRECTION('',(1.,-9.0365033593311E-17,2.2104317738669E-16));
#39=DIRECTION('',(2.2104317738669E-16,6.0206673812124E-19,-1.));
#40=AXIS2_PLACEMENT_3D('',#37,#39,#38);
#41=CIRCLE('',#40,13.9);
#42=EDGE_CURVE('',#36,#36,#41,.T.);
#43=ORIENTED_EDGE('',*,*,#42,.T.);
#44=EDGE_LOOP('',(#43));
#45=FACE_OUTER_BOUND('',#44,.T.);
#46=CARTESIAN_POINT('',(-7.3932667397366,5.25,0.));
#47=VERTEX_POINT('',#46);
#48=CARTESIAN_POINT('',(-9.0932667397366,5.25,0.));
#49=DIRECTION('',(1.,-7.388670393806E-16,-0.));
#50=DIRECTION('',(0.,-0.,1.));
#51=AXIS2_PLACEMENT_3D('',#48,#50,#49);
#52=CIRCLE('',#51,1.7);
#53=EDGE_CURVE('',#47,#47,#52,.T.);
#54=ORIENTED_EDGE('',*,*,#53,.T.);
#55=EDGE_LOOP('',(#54));
#56=FACE_BOUND('',#55,.T.);
#57=CARTESIAN_POINT('',(1.7,-10.5,0.));
#58=VERTEX_POINT('',#57);
#59=CARTESIAN_POINT('',(2.2204460492503E-16,-10.5,0.));
#60=DIRECTION('',(1.,-0.,-0.));
#61=DIRECTION('',(0.,-0.,1.));
#62=AXIS2_PLACEMENT_3D('',#59,#61,#60);
#63=CIRCLE('',#62,1.7);
#64=EDGE_CURVE('',#58,#58,#63,.T.);
#65=ORIENTED_EDGE('',*,*,#64,.T.);
#66=EDGE_LOOP('',(#65));
#67=FACE_BOUND('',#66,.T.);
#68=CARTESIAN_POINT('',(-8.259292143521,-5.75,0.));
#69=VERTEX_POINT('',#68);
#70=CARTESIAN_POINT('',(-9.9592921435211,-5.75,0.));
#71=DIRECTION('',(1.,-0.,-0.));
#72=DIRECTION('',(0.,-0.,1.));
#73=AXIS2_PLACEMENT_3D('',#70,#72,#71);
#74=CIRCLE('',#73,1.7000000000001);
#75=EDGE_CURVE('',#69,#69,#74,.T.);
#76=ORIENTED_EDGE('',*,*,#75,.T.);
#77=EDGE_LOOP('',(#76));
#78=FACE_BOUND('',#77,.T.);
#79=CARTESIAN_POINT('',(4.1,-5.5761633888167E-16,-9.0955021292416E-14));
#80=VERTEX_POINT('',#79);
#81=CARTESIAN_POINT('',(-3.5527136788005E-15,2.2685500867491E-15,-9.0942810759841E-14));
#82=DIRECTION('',(1.,-6.8930888430019E-16,-2.9781786768899E-18));
#83=DIRECTION('',(2.9781786768899E-18,-2.9781786768929E-18,1.));
#84=AXIS2_PLACEMENT_3D('',#81,#83,#82);
#85=CIRCLE('',#84,4.1);
#86=EDGE_CURVE('',#80,#80,#85,.T.);
#87=ORIENTED_EDGE('',*,*,#86,.T.);
#88=EDGE_LOOP('',(#87));
#89=FACE_BOUND('',#88,.T.);
#90=CARTESIAN_POINT('',(1.7,11.5,0.));
#91=VERTEX_POINT('',#90);
#92=CARTESIAN_POINT('',(2.6645352591004E-15,11.5,0.));
#93=DIRECTION('',(1.,-0.,-0.));
#94=DIRECTION('',(0.,-0.,1.));
#95=AXIS2_PLACEMENT_3D('',#92,#94,#93);
#96=CIRCLE('',#95,1.7);
#97=EDGE_CURVE('',#91,#91,#96,.T.);
#98=ORIENTED_EDGE('',*,*,#97,.T.);
#99=EDGE_LOOP('',(#98));
#100=FACE_BOUND('',#99,.T.);
#101=CARTESIAN_POINT('',(11.659292143521,-5.75,0.));
#102=VERTEX_POINT('',#101);
#103=CARTESIAN_POINT('',(9.959292143521,-5.75,0.));
#104=DIRECTION('',(1.,7.388670393806E-16,-0.));
#105=DIRECTION('',(0.,0.,1.));
#106=AXIS2_PLACEMENT_3D('',#103,#105,#104);
#107=CIRCLE('',#106,1.7);
#108=EDGE_CURVE('',#102,#102,#107,.T.);
#109=ORIENTED_EDGE('',*,*,#108,.T.);
#110=EDGE_LOOP('',(#109));
#111=FACE_BOUND('',#110,.T.);
#112=CARTESIAN_POINT('',(10.793266739737,5.25,0.));
#113=VERTEX_POINT('',#112);
#114=CARTESIAN_POINT('',(9.0932667397366,5.25,0.));
#115=DIRECTION('',(1.,-0.,-0.));
#116=DIRECTION('',(0.,-0.,1.));
#117=AXIS2_PLACEMENT_3D('',#114,#116,#115);
#118=CIRCLE('',#117,1.7000000000004);
#119=EDGE_CURVE('',#113,#113,#118,.T.);
#120=ORIENTED_EDGE('',*,*,#119,.T.);
#121=EDGE_LOOP('',(#120));
#122=FACE_BOUND('',#121,.T.);
#123=ADVANCED_FACE('',(#45,#56,#67,#78,#89,#100,#111,#122),#34,.T.);
#124=CARTESIAN_POINT('',(-3.7512886940357,-1.0658141036402E-14,4.));
#125=DIRECTION('',(1.,0.,0.));
#126=DIRECTION('',(0.,0.,1.));
#127=AXIS2_PLACEMENT_3D('',#124,#126,#125);
#128=PLANE('',#127);
#129=CARTESIAN_POINT('',(13.9,0.,4.));
#130=VERTEX_POINT('',#129);
#131=CARTESIAN_POINT('',(0.,1.256073966947E-15,4.));
#132=DIRECTION('',(1.,-9.0365033593311E-17,2.368757009046E-16));
#133=DIRECTION('',(-2.368757009046E-16,-4.5182516796655E-17,1.));
#134=AXIS2_PLACEMENT_3D('',#131,#133,#132);
#135=CIRCLE('',#134,13.9);
#136=EDGE_CURVE('',#130,#130,#135,.T.);
#137=ORIENTED_EDGE('',*,*,#136,.T.);
#138=EDGE_LOOP('',(#137));
#139=FACE_OUTER_BOUND('',#138,.T.);
#140=CARTESIAN_POINT('',(-7.3932667397366,5.25,4.));
#141=VERTEX_POINT('',#140);
#142=CARTESIAN_POINT('',(-9.0932667397366,5.25,4.));
#143=DIRECTION('',(1.,7.388670393806E-16,-0.));
#144=DIRECTION('',(0.,-0.,-1.));
#145=AXIS2_PLACEMENT_3D('',#142,#144,#143);
#146=CIRCLE('',#145,1.7);
#147=EDGE_CURVE('',#141,#141,#146,.T.);
#148=ORIENTED_EDGE('',*,*,#147,.T.);
#149=EDGE_LOOP('',(#148));
#150=FACE_BOUND('',#149,.T.);
#151=CARTESIAN_POINT('',(1.7,-10.5,4.));
#152=VERTEX_POINT('',#151);
#153=CARTESIAN_POINT('',(-2.2204460492503E-16,-10.5,4.));
#154=DIRECTION('',(1.,0.,-0.));
#155=DIRECTION('',(0.,-0.,-1.));
#156=AXIS2_PLACEMENT_3D('',#153,#155,#154);
#157=CIRCLE('',#156,1.7);
#158=EDGE_CURVE('',#152,#152,#157,.T.);
#159=ORIENTED_EDGE('',*,*,#158,.T.);
#160=EDGE_LOOP('',(#159));
#161=FACE_BOUND('',#160,.T.);
#162=CARTESIAN_POINT('',(-8.259292143521,-5.75,4.));
#163=VERTEX_POINT('',#162);
#164=CARTESIAN_POINT('',(-9.9592921435211,-5.75,4.));
#165=DIRECTION('',(1.,0.,-0.));
#166=DIRECTION('',(0.,-0.,-1.));
#167=AXIS2_PLACEMENT_3D('',#164,#166,#165);
#168=CIRCLE('',#167,1.7000000000001);
#169=EDGE_CURVE('',#163,#163,#168,.T.);
#170=ORIENTED_EDGE('',*,*,#169,.T.);
#171=EDGE_LOOP('',(#170));
#172=FACE_BOUND('',#171,.T.);
#173=CARTESIAN_POINT('',(1.7,11.5,4.));
#174=VERTEX_POINT('',#173);
#175=CARTESIAN_POINT('',(-4.4408920985006E-16,11.5,4.));
#176=DIRECTION('',(1.,0.,-0.));
#177=DIRECTION('',(0.,-0.,-1.));
#178=AXIS2_PLACEMENT_3D('',#175,#177,#176);
#179=CIRCLE('',#178,1.7);
#180=EDGE_CURVE('',#174,#174,#179,.T.);
#181=ORIENTED_EDGE('',*,*,#180,.T.);
#182=EDGE_LOOP('',(#181));
#183=FACE_BOUND('',#182,.T.);
#184=CARTESIAN_POINT('',(11.659292143521,-5.75,4.));
#185=VERTEX_POINT('',#184);
#186=CARTESIAN_POINT('',(9.959292143521,-5.75,4.));
#187=DIRECTION('',(1.,-7.388670393806E-16,-0.));
#188=DIRECTION('',(0.,0.,-1.));
#189=AXIS2_PLACEMENT_3D('',#186,#188,#187);
#190=CIRCLE('',#189,1.7);
#191=EDGE_CURVE('',#185,#185,#190,.T.);
#192=ORIENTED_EDGE('',*,*,#191,.T.);
#193=EDGE_LOOP('',(#192));
#194=FACE_BOUND('',#193,.T.);
#195=CARTESIAN_POINT('',(10.793266739737,5.25,4.));
#196=VERTEX_POINT('',#195);
#197=CARTESIAN_POINT('',(9.0932667397366,5.25,4.));
#198=DIRECTION('',(1.,0.,-0.));
#199=DIRECTION('',(0.,-0.,-1.));
#200=AXIS2_PLACEMENT_3D('',#197,#199,#198);
#201=CIRCLE('',#200,1.7000000000004);
#202=EDGE_CURVE('',#196,#196,#201,.T.);
#203=ORIENTED_EDGE('',*,*,#202,.T.);
#204=EDGE_LOOP('',(#203));
#205=FACE_BOUND('',#204,.T.);
#206=CARTESIAN_POINT('',(7.5,0.,4.));
#207=VERTEX_POINT('',#206);
#208=CARTESIAN_POINT('',(1.7763568394003E-15,0.,4.));
#209=DIRECTION('',(1.,0.,-0.));
#210=DIRECTION('',(0.,-0.,-1.));
#211=AXIS2_PLACEMENT_3D('',#208,#210,#209);
#212=CIRCLE('',#211,7.5);
#213=EDGE_CURVE('',#207,#207,#212,.T.);
#214=ORIENTED_EDGE('',*,*,#213,.T.);
#215=EDGE_LOOP('',(#214));
#216=FACE_BOUND('',#215,.T.);
#217=ADVANCED_FACE('',(#139,#150,#161,#172,#183,#194,#205,#216),#128,.T.);
#218=CARTESIAN_POINT('',(8.8817841970013E-16,-1.7763568394003E-15,0.099999999999994));
#219=DIRECTION('',(1.,1.2688263138573E-16,4.5598445654247E-17));
#220=DIRECTION('',(-7.0119348923694E-16,0.,1.));
#221=AXIS2_PLACEMENT_3D('',#218,#220,#219);
#222=CYLINDRICAL_SURFACE('',#221,14.);
#223=CARTESIAN_POINT('',(14.,-3.4290110376126E-15,3.9));
#224=VERTEX_POINT('',#223);
#225=CARTESIAN_POINT('',(14.,-3.4290110376126E-15,0.1));
#226=VERTEX_POINT('',#225);
#227=CARTESIAN_POINT('',(14.,-3.4290110376126E-15,3.9));
#228=DIRECTION('',(0.,0.,-1.));
#229=VECTOR('',#228,3.8);
#230=LINE('',#227,#229);
#231=EDGE_CURVE('',#224,#226,#230,.T.);
#232=ORIENTED_EDGE('',*,*,#231,.T.);
#233=CARTESIAN_POINT('',(-1.7763568394003E-15,-4.6850850045596E-15,0.099999999999998));
#234=DIRECTION('',(1.,8.9719569067644E-17,2.2168382107117E-16));
#235=DIRECTION('',(-2.2168382107117E-16,6.3084072000687E-18,1.));
#236=AXIS2_PLACEMENT_3D('',#233,#235,#234);
#237=CIRCLE('',#236,14.);
#238=EDGE_CURVE('',#226,#226,#237,.T.);
#239=ORIENTED_EDGE('',*,*,#238,.T.);
#240=ORIENTED_EDGE('',*,*,#231,.F.);
#241=CARTESIAN_POINT('',(-5.3290705182008E-15,-4.6850850045596E-15,3.9));
#242=DIRECTION('',(1.,8.9719569067644E-17,2.4447449719194E-16));
#243=DIRECTION('',(2.4447449719194E-16,-2.2429892266911E-17,-1.));
#244=AXIS2_PLACEMENT_3D('',#241,#243,#242);
#245=CIRCLE('',#244,14.);
#246=EDGE_CURVE('',#224,#224,#245,.T.);
#247=ORIENTED_EDGE('',*,*,#246,.T.);
#248=EDGE_LOOP('',(#232,#239,#240,#247));
#249=FACE_OUTER_BOUND('',#248,.T.);
#250=ADVANCED_FACE('',(#249),#222,.T.);
#251=CARTESIAN_POINT('',(-9.0932667397366,5.25,0.1));
#252=DIRECTION('',(1.,-1.1102230246252E-15,-2.6020852139652E-17));
#253=DIRECTION('',(0.,0.,1.));
#254=AXIS2_PLACEMENT_3D('',#251,#253,#252);
#255=CYLINDRICAL_SURFACE('',#254,1.6);
#256=CARTESIAN_POINT('',(-7.4932667397366,5.25,3.9));
#257=VERTEX_POINT('',#256);
#258=CARTESIAN_POINT('',(-7.4932667397366,5.25,0.1));
#259=VERTEX_POINT('',#258);
#260=CARTESIAN_POINT('',(-7.4932667397366,5.25,3.9));
#261=DIRECTION('',(0.,0.,-1.));
#262=VECTOR('',#261,3.8);
#263=LINE('',#260,#262);
#264=EDGE_CURVE('',#257,#259,#263,.T.);
#265=ORIENTED_EDGE('',*,*,#264,.T.);
#266=CARTESIAN_POINT('',(-9.0932667397366,5.25,0.1));
#267=DIRECTION('',(1.,3.9252311467094E-16,6.042901778803E-18));
#268=DIRECTION('',(6.042901778803E-18,4.5998802500501E-17,-1.));
#269=AXIS2_PLACEMENT_3D('',#266,#268,#267);
#270=CIRCLE('',#269,1.6);
#271=EDGE_CURVE('',#259,#259,#270,.T.);
#272=ORIENTED_EDGE('',*,*,#271,.T.);
#273=ORIENTED_EDGE('',*,*,#264,.F.);
#274=CARTESIAN_POINT('',(-9.0932667397366,5.25,3.9));
#275=DIRECTION('',(1.,-3.9252311467094E-16,5.5511151231258E-16));
#276=DIRECTION('',(-5.5511151231258E-16,2.1789409980263E-31,1.));
#277=AXIS2_PLACEMENT_3D('',#274,#276,#275);
#278=CIRCLE('',#277,1.6);
#279=EDGE_CURVE('',#257,#257,#278,.T.);
#280=ORIENTED_EDGE('',*,*,#279,.T.);
#281=EDGE_LOOP('',(#265,#272,#273,#280));
#282=FACE_OUTER_BOUND('',#281,.T.);
#283=ADVANCED_FACE('',(#282),#255,.F.);
#284=CARTESIAN_POINT('',(-1.7763568394003E-15,-10.5,0.1));
#285=DIRECTION('',(1.,-1.1102230246252E-15,4.336808689942E-17));
#286=DIRECTION('',(0.,0.,1.));
#287=AXIS2_PLACEMENT_3D('',#284,#286,#285);
#288=CYLINDRICAL_SURFACE('',#287,1.6);
#289=CARTESIAN_POINT('',(1.6,-10.5,3.9));
#290=VERTEX_POINT('',#289);
#291=CARTESIAN_POINT('',(1.6,-10.5,0.1));
#292=VERTEX_POINT('',#291);
#293=CARTESIAN_POINT('',(1.6,-10.5,3.9));
#294=DIRECTION('',(0.,0.,-1.));
#295=VECTOR('',#294,3.8);
#296=LINE('',#293,#295);
#297=EDGE_CURVE('',#290,#292,#296,.T.);
#298=ORIENTED_EDGE('',*,*,#297,.T.);
#299=CARTESIAN_POINT('',(2.2204460492503E-16,-10.5,0.1));
#300=DIRECTION('',(1.,-4.9065389333868E-17,-3.1568587212973E-18));
#301=DIRECTION('',(-3.1568587212973E-18,5.5198563000601E-17,-1.));
#302=AXIS2_PLACEMENT_3D('',#299,#301,#300);
#303=CIRCLE('',#302,1.6);
#304=EDGE_CURVE('',#292,#292,#303,.T.);
#305=ORIENTED_EDGE('',*,*,#304,.T.);
#306=ORIENTED_EDGE('',*,*,#297,.F.);
#307=CARTESIAN_POINT('',(-4.4408920985006E-15,-10.5,3.9));
#308=DIRECTION('',(1.,-1.471961680016E-16,5.5511151231258E-16));
#309=DIRECTION('',(-5.5511151231258E-16,8.1710287425986E-32,1.));
#310=AXIS2_PLACEMENT_3D('',#307,#309,#308);
#311=CIRCLE('',#310,1.6);
#312=EDGE_CURVE('',#290,#290,#311,.T.);
#313=ORIENTED_EDGE('',*,*,#312,.T.);
#314=EDGE_LOOP('',(#298,#305,#306,#313));
#315=FACE_OUTER_BOUND('',#314,.T.);
#316=ADVANCED_FACE('',(#315),#288,.F.);
#317=CARTESIAN_POINT('',(-9.959292143521,-5.75,0.1));
#318=DIRECTION('',(1.,-5.5511151231258E-16,-2.6020852139652E-17));
#319=DIRECTION('',(0.,0.,1.));
#320=AXIS2_PLACEMENT_3D('',#317,#319,#318);
#321=CYLINDRICAL_SURFACE('',#320,1.6);
#322=CARTESIAN_POINT('',(-8.359292143521,-5.75,3.9));
#323=VERTEX_POINT('',#322);
#324=CARTESIAN_POINT('',(-8.359292143521,-5.75,0.1));
#325=VERTEX_POINT('',#324);
#326=CARTESIAN_POINT('',(-8.359292143521,-5.75,3.9));
#327=DIRECTION('',(0.,0.,-1.));
#328=VECTOR('',#327,3.8);
#329=LINE('',#326,#328);
#330=EDGE_CURVE('',#323,#325,#329,.T.);
#331=ORIENTED_EDGE('',*,*,#330,.T.);
#332=CARTESIAN_POINT('',(-9.959292143521,-5.75,0.1));
#333=DIRECTION('',(1.,-1.4603405157804E-34,2.9763149454363E-18));
#334=DIRECTION('',(2.9763149454363E-18,4.9065389333868E-17,-1.));
#335=AXIS2_PLACEMENT_3D('',#332,#334,#333);
#336=CIRCLE('',#335,1.6);
#337=EDGE_CURVE('',#325,#325,#336,.T.);
#338=ORIENTED_EDGE('',*,*,#337,.T.);
#339=ORIENTED_EDGE('',*,*,#330,.F.);
#340=CARTESIAN_POINT('',(-9.959292143521,-5.75,3.9));
#341=DIRECTION('',(1.,7.0428451013571E-32,3.5884995497711E-16));
#342=DIRECTION('',(-3.5884995497711E-16,1.9626155733547E-16,1.));
#343=AXIS2_PLACEMENT_3D('',#340,#342,#341);
#344=CIRCLE('',#343,1.6);
#345=EDGE_CURVE('',#323,#323,#344,.T.);
#346=ORIENTED_EDGE('',*,*,#345,.T.);
#347=EDGE_LOOP('',(#331,#338,#339,#346));
#348=FACE_OUTER_BOUND('',#347,.T.);
#349=ADVANCED_FACE('',(#348),#321,.F.);
#350=CARTESIAN_POINT('',(-2.2204460492503E-15,3.1086244689504E-15,0.099999999999746));
#351=DIRECTION('',(1.,-8.9962079715235E-16,3.1943198086637E-14));
#352=DIRECTION('',(0.,0.,1.));
#353=AXIS2_PLACEMENT_3D('',#350,#352,#351);
#354=CYLINDRICAL_SURFACE('',#353,4.);
#355=CARTESIAN_POINT('',(4.,3.3476753827991E-16,6.3500000000001));
#356=VERTEX_POINT('',#355);
#357=CARTESIAN_POINT('',(4.,0.,0.09999999999982));
#358=VERTEX_POINT('',#357);
#359=CARTESIAN_POINT('',(4.,3.3476753827991E-16,6.3500000000001));
#360=DIRECTION('',(0.,-5.3562806124783E-17,-1.));
#361=VECTOR('',#360,6.2500000000003);
#362=LINE('',#359,#361);
#363=EDGE_CURVE('',#356,#358,#362,.T.);
#364=ORIENTED_EDGE('',*,*,#363,.T.);
#365=CARTESIAN_POINT('',(-1.7763568394003E-15,6.2803698346782E-16,0.10000000000002));
#366=DIRECTION('',(1.,-1.5700924586838E-16,2.6150137315157E-18));
#367=DIRECTION('',(2.6150137315202E-18,2.8426033310576E-14,-1.));
#368=AXIS2_PLACEMENT_3D('',#365,#367,#366);
#369=CIRCLE('',#368,4.);
#370=EDGE_CURVE('',#358,#358,#369,.T.);
#371=ORIENTED_EDGE('',*,*,#370,.T.);
#372=ORIENTED_EDGE('',*,*,#363,.F.);
#373=CARTESIAN_POINT('',(4.,-3.3871691897949E-16,9.6500000000001));
#374=VERTEX_POINT('',#373);
#375=CARTESIAN_POINT('',(4.,6.6742302630152E-16,6.35));
#376=CARTESIAN_POINT('',(4.,0.13232925981942,6.35));
#377=CARTESIAN_POINT('',(3.9803000878701,0.52931703927766,6.3977573627391));
#378=CARTESIAN_POINT('',(3.9053276503959,0.88817134724138,6.5860065272469));
#379=CARTESIAN_POINT('',(3.7245780863747,1.5316221640334,7.1446783466542));
#380=CARTESIAN_POINT('',(3.6036719609088,1.7415680969109,7.7442175853508));
#381=CARTESIAN_POINT('',(3.7053634738308,1.510930395541,8.8264120412898));
#382=CARTESIAN_POINT('',(3.9281149180807,1.0111209668083,9.475733134741));
#383=CARTESIAN_POINT('',(4.,0.25278024170207,9.65));
#384=CARTESIAN_POINT('',(4.,-2.764140479418E-17,9.65));
#385=B_SPLINE_CURVE_WITH_KNOTS('',3,(#375,#376,#377,#378,#379,#380,#381,#382,#383,#384),.UNSPECIFIED.,.F.,.U.,(4,1,2,2,1,4),(0.,0.1782879274448,0.5348637823345,1.3634966562144,2.0301633228811,2.3634966562144),.UNSPECIFIED.);
#386=EDGE_CURVE('',#356,#374,#385,.T.);
#387=ORIENTED_EDGE('',*,*,#386,.T.);
#388=CARTESIAN_POINT('',(4.,0.,15.9));
#389=VERTEX_POINT('',#388);
#390=CARTESIAN_POINT('',(4.,-3.3871691897949E-16,9.6500000000001));
#391=DIRECTION('',(0.,5.4194707036719E-17,1.));
#392=VECTOR('',#391,6.2499999999999);
#393=LINE('',#390,#392);
#394=EDGE_CURVE('',#374,#389,#393,.T.);
#395=ORIENTED_EDGE('',*,*,#394,.T.);
#396=CARTESIAN_POINT('',(-3.5527136788005E-15,1.8841109504206E-15,15.9));
#397=DIRECTION('',(1.,-4.7102773760515E-16,3.0794663528138E-16));
#398=DIRECTION('',(-3.0794663528141E-16,-5.7151365496089E-14,1.));
#399=AXIS2_PLACEMENT_3D('',#396,#398,#397);
#400=CIRCLE('',#399,4.);
#401=EDGE_CURVE('',#389,#389,#400,.T.);
#402=ORIENTED_EDGE('',*,*,#401,.T.);
#403=ORIENTED_EDGE('',*,*,#394,.F.);
#404=CARTESIAN_POINT('',(4.,-6.7516392060955E-16,9.65));
#405=CARTESIAN_POINT('',(4.,-0.13232925981944,9.65));
#406=CARTESIAN_POINT('',(3.9803000878701,-0.52931703927774,9.6022426372608));
#407=CARTESIAN_POINT('',(3.9053276503978,-0.8881713472345,9.413993472759));
#408=CARTESIAN_POINT('',(3.7245780863747,-1.5316221640334,8.8553216533458));
#409=CARTESIAN_POINT('',(3.6036719609088,-1.7415680969109,8.2557824146492));
#410=CARTESIAN_POINT('',(3.7053634738308,-1.510930395541,7.1735879587102));
#411=CARTESIAN_POINT('',(3.9281149180807,-1.0111209668083,6.524266865259));
#412=CARTESIAN_POINT('',(4.,-0.25278024170207,6.35));
#413=CARTESIAN_POINT('',(4.,-4.2483804474402E-16,6.35));
#414=B_SPLINE_CURVE_WITH_KNOTS('',3,(#404,#405,#406,#407,#408,#409,#410,#411,#412,#413),.UNSPECIFIED.,.F.,.U.,(4,1,2,2,1,4),(0.,0.1782879274512,0.5348637823535,1.3634966562335,2.0301633229002,2.3634966562335),.UNSPECIFIED.);
#415=EDGE_CURVE('',#374,#356,#414,.T.);
#416=ORIENTED_EDGE('',*,*,#415,.T.);
#417=EDGE_LOOP('',(#364,#371,#372,#387,#395,#402,#403,#416));
#418=FACE_OUTER_BOUND('',#417,.T.);
#419=ADVANCED_FACE('',(#418),#354,.F.);
#420=CARTESIAN_POINT('',(2.6645352591004E-15,11.5,0.1));
#421=DIRECTION('',(1.,-1.1102230246252E-15,-2.6020852139652E-17));
#422=DIRECTION('',(0.,0.,1.));
#423=AXIS2_PLACEMENT_3D('',#420,#422,#421);
#424=CYLINDRICAL_SURFACE('',#423,1.6);
#425=CARTESIAN_POINT('',(1.6,11.5,3.9));
#426=VERTEX_POINT('',#425);
#427=CARTESIAN_POINT('',(1.6,11.5,0.1));
#428=VERTEX_POINT('',#427);
#429=CARTESIAN_POINT('',(1.6,11.5,3.9));
#430=DIRECTION('',(0.,0.,-1.));
#431=VECTOR('',#430,3.8);
#432=LINE('',#429,#431);
#433=EDGE_CURVE('',#426,#428,#432,.T.);
#434=ORIENTED_EDGE('',*,*,#433,.T.);
#435=CARTESIAN_POINT('',(-1.3322676295502E-15,11.5,0.1));
#436=DIRECTION('',(1.,4.9065389333868E-17,6.0429017788031E-18));
#437=DIRECTION('',(6.0429017788031E-18,4.5998802500501E-17,-1.));
#438=AXIS2_PLACEMENT_3D('',#435,#437,#436);
#439=CIRCLE('',#438,1.6);
#440=EDGE_CURVE('',#428,#428,#439,.T.);
#441=ORIENTED_EDGE('',*,*,#440,.T.);
#442=ORIENTED_EDGE('',*,*,#433,.F.);
#443=CARTESIAN_POINT('',(1.5543122344752E-15,11.5,3.9));
#444=DIRECTION('',(1.,1.471961680016E-16,5.5511151231258E-16));
#445=DIRECTION('',(-5.5511151231258E-16,-8.1710287425987E-32,1.));
#446=AXIS2_PLACEMENT_3D('',#443,#445,#444);
#447=CIRCLE('',#446,1.6);
#448=EDGE_CURVE('',#426,#426,#447,.T.);
#449=ORIENTED_EDGE('',*,*,#448,.T.);
#450=EDGE_LOOP('',(#434,#441,#442,#449));
#451=FACE_OUTER_BOUND('',#450,.T.);
#452=ADVANCED_FACE('',(#451),#424,.F.);
#453=CARTESIAN_POINT('',(9.959292143521,-5.75,0.1));
#454=DIRECTION('',(1.,-5.5511151231258E-16,-2.6020852139652E-17));
#455=DIRECTION('',(0.,0.,1.));
#456=AXIS2_PLACEMENT_3D('',#453,#455,#454);
#457=CYLINDRICAL_SURFACE('',#456,1.6);
#458=CARTESIAN_POINT('',(11.559292143521,-5.75,3.9));
#459=VERTEX_POINT('',#458);
#460=CARTESIAN_POINT('',(11.559292143521,-5.75,0.1));
#461=VERTEX_POINT('',#460);
#462=CARTESIAN_POINT('',(11.559292143521,-5.75,3.9));
#463=DIRECTION('',(0.,0.,-1.));
#464=VECTOR('',#463,3.8);
#465=LINE('',#462,#464);
#466=EDGE_CURVE('',#459,#461,#465,.T.);
#467=ORIENTED_EDGE('',*,*,#466,.T.);
#468=CARTESIAN_POINT('',(9.959292143521,-5.75,0.1));
#469=DIRECTION('',(1.,3.9252311467094E-16,2.9763149454363E-18));
#470=DIRECTION('',(2.9763149454362E-18,4.9065389333868E-17,-1.));
#471=AXIS2_PLACEMENT_3D('',#468,#470,#469);
#472=CIRCLE('',#471,1.6);
#473=EDGE_CURVE('',#461,#461,#472,.T.);
#474=ORIENTED_EDGE('',*,*,#473,.T.);
#475=ORIENTED_EDGE('',*,*,#466,.F.);
#476=CARTESIAN_POINT('',(9.959292143521,-5.75,3.9));
#477=DIRECTION('',(1.,-3.9252311467094E-16,3.5884995497711E-16));
#478=DIRECTION('',(-3.5884995497711E-16,1.9626155733547E-16,1.));
#479=AXIS2_PLACEMENT_3D('',#476,#478,#477);
#480=CIRCLE('',#479,1.6);
#481=EDGE_CURVE('',#459,#459,#480,.T.);
#482=ORIENTED_EDGE('',*,*,#481,.T.);
#483=EDGE_LOOP('',(#467,#474,#475,#482));
#484=FACE_OUTER_BOUND('',#483,.T.);
#485=ADVANCED_FACE('',(#484),#457,.F.);
#486=CARTESIAN_POINT('',(9.0932667397366,5.25,0.1));
#487=DIRECTION('',(1.,-1.1102230246252E-15,4.336808689942E-17));
#488=DIRECTION('',(0.,0.,1.));
#489=AXIS2_PLACEMENT_3D('',#486,#488,#487);
#490=CYLINDRICAL_SURFACE('',#489,1.6);
#491=CARTESIAN_POINT('',(10.693266739737,5.25,3.9));
#492=VERTEX_POINT('',#491);
#493=CARTESIAN_POINT('',(10.693266739737,5.25,0.1));
#494=VERTEX_POINT('',#493);
#495=CARTESIAN_POINT('',(10.693266739737,5.25,3.9));
#496=DIRECTION('',(0.,0.,-1.));
#497=VECTOR('',#496,3.8);
#498=LINE('',#495,#497);
#499=EDGE_CURVE('',#492,#494,#498,.T.);
#500=ORIENTED_EDGE('',*,*,#499,.T.);
#501=CARTESIAN_POINT('',(9.0932667397366,5.25,0.1));
#502=DIRECTION('',(1.,3.9252311467085E-16,-3.1568587212964E-18));
#503=DIRECTION('',(-3.1568587212964E-18,5.5198563000588E-17,-1.));
#504=AXIS2_PLACEMENT_3D('',#501,#503,#502);
#505=CIRCLE('',#504,1.6000000000004);
#506=EDGE_CURVE('',#494,#494,#505,.T.);
#507=ORIENTED_EDGE('',*,*,#506,.T.);
#508=ORIENTED_EDGE('',*,*,#499,.F.);
#509=CARTESIAN_POINT('',(9.0932667397366,5.25,3.9));
#510=DIRECTION('',(1.,-3.9252311467085E-16,5.5511151231244E-16));
#511=DIRECTION('',(-5.5511151231244E-16,2.1789409980252E-31,1.));
#512=AXIS2_PLACEMENT_3D('',#509,#511,#510);
#513=CIRCLE('',#512,1.6000000000004);
#514=EDGE_CURVE('',#492,#492,#513,.T.);
#515=ORIENTED_EDGE('',*,*,#514,.T.);
#516=EDGE_LOOP('',(#500,#507,#508,#515));
#517=FACE_OUTER_BOUND('',#516,.T.);
#518=ADVANCED_FACE('',(#517),#490,.F.);
#519=CARTESIAN_POINT('',(1.7763568394003E-15,0.,4.0000000000003));
#520=DIRECTION('',(1.,6.5738408768418E-31,1.2079226507922E-14));
#521=DIRECTION('',(0.,0.,1.));
#522=AXIS2_PLACEMENT_3D('',#519,#521,#520);
#523=CYLINDRICAL_SURFACE('',#522,7.5);
#524=ORIENTED_EDGE('',*,*,#213,.F.);
#525=CARTESIAN_POINT('',(7.5,-7.4700410450923E-16,6.35));
#526=VERTEX_POINT('',#525);
#527=CARTESIAN_POINT('',(7.5,0.,4.));
#528=DIRECTION('',(0.,-3.178740870252E-16,1.));
#529=VECTOR('',#528,2.35);
#530=LINE('',#527,#529);
#531=EDGE_CURVE('',#207,#526,#530,.T.);
#532=ORIENTED_EDGE('',*,*,#531,.T.);
#533=CARTESIAN_POINT('',(7.5,3.6041471031137E-11,9.65));
#534=VERTEX_POINT('',#533);
#535=CARTESIAN_POINT('',(7.5,-1.4887499515033E-15,6.35));
#536=CARTESIAN_POINT('',(7.5,-0.25065084982814,6.35));
#537=CARTESIAN_POINT('',(7.4623044908883,-1.0026033993125,6.5213432232352));
#538=CARTESIAN_POINT('',(7.3483524112499,-1.5045355775832,7.1616495035218));
#539=CARTESIAN_POINT('',(7.2891566113795,-1.7736670209996,8.3794108459111));
#540=CARTESIAN_POINT('',(7.3944348965905,-1.4207554536326,9.1238577161833));
#541=CARTESIAN_POINT('',(7.477479337167,-0.60128099214572,9.5463921833201));
#542=CARTESIAN_POINT('',(7.4954026215332,-0.35013820002311,9.6291028251508));
#543=CARTESIAN_POINT('',(7.5,-0.087534550005778,9.65));
#544=CARTESIAN_POINT('',(7.5,-1.2415630652152E-15,9.65));
#545=B_SPLINE_CURVE_WITH_KNOTS('',3,(#535,#536,#537,#538,#539,#540,#541,#542,#543,#544),.UNSPECIFIED.,.F.,.U.,(4,1,2,2,1,4),(0.,0.3333333333333,1.,2.0166581277849,2.2535961054139,2.3720650942284),.UNSPECIFIED.);
#546=EDGE_CURVE('',#526,#534,#545,.T.);
#547=ORIENTED_EDGE('',*,*,#546,.T.);
#548=CARTESIAN_POINT('',(7.5,-1.836970198721E-15,15.900000000001));
#549=VERTEX_POINT('',#548);
#550=CARTESIAN_POINT('',(7.5,3.6041471031137E-11,9.65));
#551=DIRECTION('',(0.,-5.7669292802128E-12,1.));
#552=VECTOR('',#551,6.250000000001);
#553=LINE('',#550,#552);
#554=EDGE_CURVE('',#534,#549,#553,.T.);
#555=ORIENTED_EDGE('',*,*,#554,.T.);
#556=CARTESIAN_POINT('',(2.6645352591004E-15,-1.836970198721E-15,15.900000000001));
#557=DIRECTION('',(1.,0.,-0.));
#558=DIRECTION('',(0.,-0.,-1.));
#559=AXIS2_PLACEMENT_3D('',#556,#558,#557);
#560=CIRCLE('',#559,7.5);
#561=EDGE_CURVE('',#549,#549,#560,.T.);
#562=ORIENTED_EDGE('',*,*,#561,.T.);
#563=ORIENTED_EDGE('',*,*,#554,.F.);
#564=CARTESIAN_POINT('',(7.5,3.4931033403255E-16,9.65));
#565=CARTESIAN_POINT('',(7.5,0.25065084982814,9.65));
#566=CARTESIAN_POINT('',(7.4623044908883,1.0026033993126,9.4786567767648));
#567=CARTESIAN_POINT('',(7.3483524112499,1.5045355775832,8.8383504964783));
#568=CARTESIAN_POINT('',(7.2891566113795,1.7736670209996,7.6205891540888));
#569=CARTESIAN_POINT('',(7.3944348965905,1.4207554536326,6.8761422838167));
#570=CARTESIAN_POINT('',(7.477479337167,0.60128099214576,6.4536078166799));
#571=CARTESIAN_POINT('',(7.4954026215332,0.35013820002307,6.3708971748492));
#572=CARTESIAN_POINT('',(7.5,0.087534550005767,6.35));
#573=CARTESIAN_POINT('',(7.5,3.4296198970257E-16,6.35));
#574=B_SPLINE_CURVE_WITH_KNOTS('',3,(#564,#565,#566,#567,#568,#569,#570,#571,#572,#573),.UNSPECIFIED.,.F.,.U.,(4,1,2,2,1,4),(0.,0.3333333333333,1.,2.0166581277849,2.2535961054138,2.3720650942282),.UNSPECIFIED.);
#575=EDGE_CURVE('',#534,#526,#574,.T.);
#576=ORIENTED_EDGE('',*,*,#575,.T.);
#577=ORIENTED_EDGE('',*,*,#531,.F.);
#578=EDGE_LOOP('',(#524,#532,#547,#555,#562,#563,#576,#577));
#579=FACE_OUTER_BOUND('',#578,.T.);
#580=ADVANCED_FACE('',(#579),#523,.T.);
#581=CARTESIAN_POINT('',(-2.0096189432334,-7.105427357601E-15,16.));
#582=DIRECTION('',(1.,0.,0.));
#583=DIRECTION('',(0.,0.,1.));
#584=AXIS2_PLACEMENT_3D('',#581,#583,#582);
#585=PLANE('',#584);
#586=CARTESIAN_POINT('',(7.4,1.1842378929335E-17,16.000000000001));
#587=VERTEX_POINT('',#586);
#588=CARTESIAN_POINT('',(-1.7763568394003E-15,6.3987936240285E-16,16.000000000001));
#589=DIRECTION('',(1.,-8.4869862631555E-17,-1.6973972526311E-16));
#590=DIRECTION('',(1.6973972526311E-16,1.6973972526311E-16,1.));
#591=AXIS2_PLACEMENT_3D('',#588,#590,#589);
#592=CIRCLE('',#591,7.4);
#593=EDGE_CURVE('',#587,#587,#592,.T.);
#594=ORIENTED_EDGE('',*,*,#593,.T.);
#595=EDGE_LOOP('',(#594));
#596=FACE_OUTER_BOUND('',#595,.T.);
#597=CARTESIAN_POINT('',(4.1,-5.5761633888167E-16,16.));
#598=VERTEX_POINT('',#597);
#599=CARTESIAN_POINT('',(-2.6645352591004E-15,1.6405131032756E-15,16.));
#600=DIRECTION('',(1.,-5.3612913223348E-16,-0.));
#601=DIRECTION('',(0.,0.,-1.));
#602=AXIS2_PLACEMENT_3D('',#599,#601,#600);
#603=CIRCLE('',#602,4.1);
#604=EDGE_CURVE('',#598,#598,#603,.T.);
#605=ORIENTED_EDGE('',*,*,#604,.T.);
#606=EDGE_LOOP('',(#605));
#607=FACE_BOUND('',#606,.T.);
#608=ADVANCED_FACE('',(#596,#607),#585,.T.);
#609=CARTESIAN_POINT('',(7.5005468669772,-6.6613381477509E-16,8.));
#610=DIRECTION('',(0.,1.3455219332144E-16,-1.));
#611=DIRECTION('',(-1.,6.1232339957368E-17,0.));
#612=AXIS2_PLACEMENT_3D('',#609,#611,#610);
#613=CYLINDRICAL_SURFACE('',#612,1.65);
#614=CARTESIAN_POINT('',(7.5,-7.4700410450923E-16,6.35));
#615=DIRECTION('',(-1.,3.0907761222547E-16,2.8675474693175E-14));
#616=VECTOR('',#615,3.5);
#617=LINE('',#614,#616);
#618=EDGE_CURVE('',#526,#356,#617,.T.);
#619=ORIENTED_EDGE('',*,*,#618,.T.);
#620=ORIENTED_EDGE('',*,*,#415,.F.);
#621=ORIENTED_EDGE('',*,*,#386,.F.);
#622=ORIENTED_EDGE('',*,*,#618,.F.);
#623=ORIENTED_EDGE('',*,*,#575,.F.);
#624=ORIENTED_EDGE('',*,*,#546,.F.);
#625=EDGE_LOOP('',(#619,#620,#621,#622,#623,#624));
#626=FACE_OUTER_BOUND('',#625,.T.);
#627=ADVANCED_FACE('',(#626),#613,.F.);
#628=CARTESIAN_POINT('',(-6.2008879143543E-15,2.8404217396335E-14,-13.900000000002));
#629=DIRECTION('',(1.,-2.1256741166388E-15,3.1047134883921E-16));
#630=DIRECTION('',(-3.1047134883921E-16,9.6801445472038E-17,1.));
#631=AXIS2_PLACEMENT_3D('',#628,#630,#629);
#632=CONICAL_SURFACE('',#631,0.,0.78539816339739);
#633=ORIENTED_EDGE('',*,*,#42,.F.);
#634=CARTESIAN_POINT('',(13.9,0.,8.3266726846887E-16));
#635=DIRECTION('',(0.70710678118655,-2.4246769574594E-14,0.70710678118655));
#636=VECTOR('',#635,0.14142135623731);
#637=LINE('',#634,#636);
#638=EDGE_CURVE('',#36,#226,#637,.T.);
#639=ORIENTED_EDGE('',*,*,#638,.T.);
#640=ORIENTED_EDGE('',*,*,#238,.F.);
#641=ORIENTED_EDGE('',*,*,#638,.F.);
#642=EDGE_LOOP('',(#633,#639,#640,#641));
#643=FACE_OUTER_BOUND('',#642,.T.);
#644=ADVANCED_FACE('',(#643),#632,.T.);
#645=CARTESIAN_POINT('',(-9.4441979350649E-15,1.5502883856753E-14,17.900000000002));
#646=DIRECTION('',(1.,-8.9522464728039E-16,7.1769418575636E-17));
#647=DIRECTION('',(7.1769418575635E-17,-2.1212419963052E-16,-1.));
#648=AXIS2_PLACEMENT_3D('',#645,#647,#646);
#649=CONICAL_SURFACE('',#648,0.,0.78539816339738);
#650=CARTESIAN_POINT('',(13.9,0.,4.));
#651=DIRECTION('',(0.70710678118655,-2.4246769574594E-14,-0.70710678118655));
#652=VECTOR('',#651,0.14142135623731);
#653=LINE('',#650,#652);
#654=EDGE_CURVE('',#130,#224,#653,.T.);
#655=ORIENTED_EDGE('',*,*,#654,.T.);
#656=ORIENTED_EDGE('',*,*,#246,.F.);
#657=ORIENTED_EDGE('',*,*,#654,.F.);
#658=ORIENTED_EDGE('',*,*,#136,.F.);
#659=EDGE_LOOP('',(#655,#656,#657,#658));
#660=FACE_OUTER_BOUND('',#659,.T.);
#661=ADVANCED_FACE('',(#660),#649,.T.);
#662=CARTESIAN_POINT('',(-9.0932667397366,5.25,1.7));
#663=DIRECTION('',(1.,-1.1631832241334E-15,-1.4348808858785E-31));
#664=DIRECTION('',(-0.,1.2924258045927E-16,-1.));
#665=AXIS2_PLACEMENT_3D('',#662,#664,#663);
#666=CONICAL_SURFACE('',#665,0.,0.78539816339744);
#667=CARTESIAN_POINT('',(-7.3932667397366,5.25,0.));
#668=DIRECTION('',(-0.70710678118655,0.,0.70710678118655));
#669=VECTOR('',#668,0.14142135623731);
#670=LINE('',#667,#669);
#671=EDGE_CURVE('',#47,#259,#670,.T.);
#672=ORIENTED_EDGE('',*,*,#671,.T.);
#673=ORIENTED_EDGE('',*,*,#271,.F.);
#674=ORIENTED_EDGE('',*,*,#671,.F.);
#675=ORIENTED_EDGE('',*,*,#53,.F.);
#676=EDGE_LOOP('',(#672,#673,#674,#675));
#677=FACE_OUTER_BOUND('',#676,.T.);
#678=ADVANCED_FACE('',(#677),#666,.F.);
#679=CARTESIAN_POINT('',(-9.0932667397366,5.25,2.3));
#680=DIRECTION('',(1.,1.1631832241334E-15,2.5848516091854E-16));
#681=DIRECTION('',(-2.5848516091854E-16,-1.2924258045927E-16,1.));
#682=AXIS2_PLACEMENT_3D('',#679,#681,#680);
#683=CONICAL_SURFACE('',#682,0.,0.78539816339744);
#684=ORIENTED_EDGE('',*,*,#147,.F.);
#685=CARTESIAN_POINT('',(-7.3932667397366,5.25,4.));
#686=DIRECTION('',(-0.70710678118655,0.,-0.70710678118655));
#687=VECTOR('',#686,0.14142135623731);
#688=LINE('',#685,#687);
#689=EDGE_CURVE('',#141,#257,#688,.T.);
#690=ORIENTED_EDGE('',*,*,#689,.T.);
#691=ORIENTED_EDGE('',*,*,#279,.F.);
#692=ORIENTED_EDGE('',*,*,#689,.F.);
#693=EDGE_LOOP('',(#684,#690,#691,#692));
#694=FACE_OUTER_BOUND('',#693,.T.);
#695=ADVANCED_FACE('',(#694),#683,.F.);
#696=CARTESIAN_POINT('',(-2.2759572004816E-15,-10.5,1.7));
#697=DIRECTION('',(1.,-4.1357625746966E-15,-9.3349287602794E-17));
#698=DIRECTION('',(-9.3349287602794E-17,-0.,-1.));
#699=AXIS2_PLACEMENT_3D('',#696,#698,#697);
#700=CONICAL_SURFACE('',#699,0.,0.78539816339745);
#701=CARTESIAN_POINT('',(1.7,-10.5,0.));
#702=DIRECTION('',(-0.70710678118655,0.,0.70710678118655));
#703=VECTOR('',#702,0.14142135623731);
#704=LINE('',#701,#703);
#705=EDGE_CURVE('',#58,#292,#704,.T.);
#706=ORIENTED_EDGE('',*,*,#705,.T.);
#707=ORIENTED_EDGE('',*,*,#304,.F.);
#708=ORIENTED_EDGE('',*,*,#705,.F.);
#709=ORIENTED_EDGE('',*,*,#64,.F.);
#710=EDGE_LOOP('',(#706,#707,#708,#709));
#711=FACE_OUTER_BOUND('',#710,.T.);
#712=ADVANCED_FACE('',(#711),#700,.F.);
#713=CARTESIAN_POINT('',(-1.4973768762396E-15,-10.5,2.3));
#714=DIRECTION('',(1.,-1.8093961264298E-15,1.8669857520559E-16));
#715=DIRECTION('',(-1.8669857520559E-16,-2.5848516091854E-16,1.));
#716=AXIS2_PLACEMENT_3D('',#713,#715,#714);
#717=CONICAL_SURFACE('',#716,0.,0.78539816339745);
#718=ORIENTED_EDGE('',*,*,#158,.F.);
#719=CARTESIAN_POINT('',(1.7,-10.5,4.));
#720=DIRECTION('',(-0.70710678118655,0.,-0.70710678118655));
#721=VECTOR('',#720,0.14142135623731);
#722=LINE('',#719,#721);
#723=EDGE_CURVE('',#152,#290,#722,.T.);
#724=ORIENTED_EDGE('',*,*,#723,.T.);
#725=ORIENTED_EDGE('',*,*,#312,.F.);
#726=ORIENTED_EDGE('',*,*,#723,.F.);
#727=EDGE_LOOP('',(#718,#724,#725,#726));
#728=FACE_OUTER_BOUND('',#727,.T.);
#729=ADVANCED_FACE('',(#728),#717,.F.);
#730=CARTESIAN_POINT('',(-9.959292143521,-5.75,1.7));
#731=DIRECTION('',(1.,-1.2924258045926E-16,-4.3046426576353E-32));
#732=DIRECTION('',(-0.,1.2924258045926E-16,-1.));
#733=AXIS2_PLACEMENT_3D('',#730,#732,#731);
#734=CONICAL_SURFACE('',#733,0.,0.78539816339744);
#735=CARTESIAN_POINT('',(-8.259292143521,-5.75,0.));
#736=DIRECTION('',(-0.70710678118655,0.,0.70710678118655));
#737=VECTOR('',#736,0.14142135623731);
#738=LINE('',#735,#737);
#739=EDGE_CURVE('',#69,#325,#738,.T.);
#740=ORIENTED_EDGE('',*,*,#739,.T.);
#741=ORIENTED_EDGE('',*,*,#337,.F.);
#742=ORIENTED_EDGE('',*,*,#739,.F.);
#743=ORIENTED_EDGE('',*,*,#75,.F.);
#744=EDGE_LOOP('',(#740,#741,#742,#743));
#745=FACE_OUTER_BOUND('',#744,.T.);
#746=ADVANCED_FACE('',(#745),#734,.F.);
#747=CARTESIAN_POINT('',(-9.959292143521,-5.75,2.3));
#748=DIRECTION('',(1.,2.9725793505631E-15,1.1479047087027E-30));
#749=DIRECTION('',(-0.,-3.8772774137778E-16,1.));
#750=AXIS2_PLACEMENT_3D('',#747,#749,#748);
#751=CONICAL_SURFACE('',#750,0.,0.78539816339744);
#752=ORIENTED_EDGE('',*,*,#169,.F.);
#753=CARTESIAN_POINT('',(-8.259292143521,-5.75,4.));
#754=DIRECTION('',(-0.70710678118655,0.,-0.70710678118655));
#755=VECTOR('',#754,0.14142135623731);
#756=LINE('',#753,#755);
#757=EDGE_CURVE('',#163,#323,#756,.T.);
#758=ORIENTED_EDGE('',*,*,#757,.T.);
#759=ORIENTED_EDGE('',*,*,#345,.F.);
#760=ORIENTED_EDGE('',*,*,#757,.F.);
#761=EDGE_LOOP('',(#752,#758,#759,#760));
#762=FACE_OUTER_BOUND('',#761,.T.);
#763=ADVANCED_FACE('',(#762),#751,.F.);
#764=CARTESIAN_POINT('',(-3.5605733958326E-15,3.08539401484E-15,4.0999999999998));
#765=DIRECTION('',(1.,-8.8853911066381E-16,0.));
#766=DIRECTION('',(-0.,-0.,-1.));
#767=AXIS2_PLACEMENT_3D('',#764,#766,#765);
#768=CONICAL_SURFACE('',#767,0.,0.78539816339746);
#769=CARTESIAN_POINT('',(4.1,-5.5761633888167E-16,-9.0955021292416E-14));
#770=DIRECTION('',(-0.70710678118686,3.9429429452382E-15,0.70710678118623));
#771=VECTOR('',#770,0.14142135623725);
#772=LINE('',#769,#771);
#773=EDGE_CURVE('',#80,#358,#772,.T.);
#774=ORIENTED_EDGE('',*,*,#773,.T.);
#775=ORIENTED_EDGE('',*,*,#370,.F.);
#776=ORIENTED_EDGE('',*,*,#773,.F.);
#777=ORIENTED_EDGE('',*,*,#86,.F.);
#778=EDGE_LOOP('',(#774,#775,#776,#777));
#779=FACE_OUTER_BOUND('',#778,.T.);
#780=ADVANCED_FACE('',(#779),#768,.F.);
#781=CARTESIAN_POINT('',(1.4432899320127E-15,11.5,1.7));
#782=DIRECTION('',(1.,1.0339406436742E-15,-9.3349287602795E-17));
#783=DIRECTION('',(-9.3349287602795E-17,-0.,-1.));
#784=AXIS2_PLACEMENT_3D('',#781,#783,#782);
#785=CONICAL_SURFACE('',#784,0.,0.78539816339745);
#786=CARTESIAN_POINT('',(1.7,11.5,0.));
#787=DIRECTION('',(-0.70710678118655,0.,0.70710678118655));
#788=VECTOR('',#787,0.14142135623731);
#789=LINE('',#786,#788);
#790=EDGE_CURVE('',#91,#428,#789,.T.);
#791=ORIENTED_EDGE('',*,*,#790,.T.);
#792=ORIENTED_EDGE('',*,*,#440,.F.);
#793=ORIENTED_EDGE('',*,*,#790,.F.);
#794=ORIENTED_EDGE('',*,*,#97,.F.);
#795=EDGE_LOOP('',(#791,#792,#793,#794));
#796=FACE_OUTER_BOUND('',#795,.T.);
#797=ADVANCED_FACE('',(#796),#785,.F.);
#798=CARTESIAN_POINT('',(2.3328925587172E-15,11.5,2.3));
#799=DIRECTION('',(1.,2.3263664482669E-15,1.1350174261408E-16));
#800=DIRECTION('',(-1.1350174261408E-16,-2.5848516091854E-16,1.));
#801=AXIS2_PLACEMENT_3D('',#798,#800,#799);
#802=CONICAL_SURFACE('',#801,0.,0.78539816339745);
#803=ORIENTED_EDGE('',*,*,#180,.F.);
#804=CARTESIAN_POINT('',(1.7,11.5,4.));
#805=DIRECTION('',(-0.70710678118655,0.,-0.70710678118655));
#806=VECTOR('',#805,0.14142135623731);
#807=LINE('',#804,#806);
#808=EDGE_CURVE('',#174,#426,#807,.T.);
#809=ORIENTED_EDGE('',*,*,#808,.T.);
#810=ORIENTED_EDGE('',*,*,#448,.F.);
#811=ORIENTED_EDGE('',*,*,#808,.F.);
#812=EDGE_LOOP('',(#803,#809,#810,#811));
#813=FACE_OUTER_BOUND('',#812,.T.);
#814=ADVANCED_FACE('',(#813),#802,.F.);
#815=CARTESIAN_POINT('',(9.959292143521,-5.75,1.6999999999999));
#816=DIRECTION('',(1.,-2.7140941896446E-15,-3.730690303284E-31));
#817=DIRECTION('',(-0.,1.2924258045927E-16,-1.));
#818=AXIS2_PLACEMENT_3D('',#815,#817,#816);
#819=CONICAL_SURFACE('',#818,0.,0.78539816339748);
#820=CARTESIAN_POINT('',(11.659292143521,-5.75,0.));
#821=DIRECTION('',(-0.70710678118655,0.,0.70710678118655));
#822=VECTOR('',#821,0.14142135623731);
#823=LINE('',#820,#822);
#824=EDGE_CURVE('',#102,#461,#823,.T.);
#825=ORIENTED_EDGE('',*,*,#824,.T.);
#826=ORIENTED_EDGE('',*,*,#473,.F.);
#827=ORIENTED_EDGE('',*,*,#824,.F.);
#828=ORIENTED_EDGE('',*,*,#108,.F.);
#829=EDGE_LOOP('',(#825,#826,#827,#828));
#830=FACE_OUTER_BOUND('',#829,.T.);
#831=ADVANCED_FACE('',(#830),#819,.F.);
#832=CARTESIAN_POINT('',(9.959292143521,-5.75,2.3000000000001));
#833=DIRECTION('',(1.,-3.877277413778E-16,2.5848516091855E-16));
#834=DIRECTION('',(-2.5848516091855E-16,-1.2924258045927E-16,1.));
#835=AXIS2_PLACEMENT_3D('',#832,#834,#833);
#836=CONICAL_SURFACE('',#835,0.,0.78539816339748);
#837=ORIENTED_EDGE('',*,*,#191,.F.);
#838=CARTESIAN_POINT('',(11.659292143521,-5.75,4.));
#839=DIRECTION('',(-0.70710678118655,0.,-0.70710678118655));
#840=VECTOR('',#839,0.14142135623731);
#841=LINE('',#838,#840);
#842=EDGE_CURVE('',#185,#459,#841,.T.);
#843=ORIENTED_EDGE('',*,*,#842,.T.);
#844=ORIENTED_EDGE('',*,*,#481,.F.);
#845=ORIENTED_EDGE('',*,*,#842,.F.);
#846=EDGE_LOOP('',(#837,#843,#844,#845));
#847=FACE_OUTER_BOUND('',#846,.T.);
#848=ADVANCED_FACE('',(#847),#836,.F.);
#849=CARTESIAN_POINT('',(9.0932667397366,5.25,1.7));
#850=DIRECTION('',(1.,-2.0678812873479E-15,0.));
#851=DIRECTION('',(-0.,-0.,-1.));
#852=AXIS2_PLACEMENT_3D('',#849,#851,#850);
#853=CONICAL_SURFACE('',#852,0.,0.78539816339744);
#854=CARTESIAN_POINT('',(10.793266739737,5.25,0.));
#855=DIRECTION('',(-0.70710678118655,0.,0.70710678118655));
#856=VECTOR('',#855,0.14142135623731);
#857=LINE('',#854,#856);
#858=EDGE_CURVE('',#113,#494,#857,.T.);
#859=ORIENTED_EDGE('',*,*,#858,.T.);
#860=ORIENTED_EDGE('',*,*,#506,.F.);
#861=ORIENTED_EDGE('',*,*,#858,.F.);
#862=ORIENTED_EDGE('',*,*,#119,.F.);
#863=EDGE_LOOP('',(#859,#860,#861,#862));
#864=FACE_OUTER_BOUND('',#863,.T.);
#865=ADVANCED_FACE('',(#864),#853,.F.);
#866=CARTESIAN_POINT('',(9.0932667397366,5.25,2.3));
#867=DIRECTION('',(1.,0.,0.));
#868=DIRECTION('',(-0.,-0.,1.));
#869=AXIS2_PLACEMENT_3D('',#866,#868,#867);
#870=CONICAL_SURFACE('',#869,0.,0.78539816339744);
#871=ORIENTED_EDGE('',*,*,#202,.F.);
#872=CARTESIAN_POINT('',(10.793266739737,5.25,4.));
#873=DIRECTION('',(-0.70710678118655,0.,-0.70710678118655));
#874=VECTOR('',#873,0.14142135623731);
#875=LINE('',#872,#874);
#876=EDGE_CURVE('',#196,#492,#875,.T.);
#877=ORIENTED_EDGE('',*,*,#876,.T.);
#878=ORIENTED_EDGE('',*,*,#514,.F.);
#879=ORIENTED_EDGE('',*,*,#876,.F.);
#880=EDGE_LOOP('',(#871,#877,#878,#879));
#881=FACE_OUTER_BOUND('',#880,.T.);
#882=ADVANCED_FACE('',(#881),#870,.F.);
#883=CARTESIAN_POINT('',(3.6511960952987E-15,-1.4091421657849E-14,23.400000000001));
#884=DIRECTION('',(1.,2.0472576886776E-15,1.9030518201162E-16));
#885=DIRECTION('',(1.9030518201162E-16,-1.6840146763108E-16,-1.));
#886=AXIS2_PLACEMENT_3D('',#883,#885,#884);
#887=CONICAL_SURFACE('',#886,0.,0.78539816339745);
#888=CARTESIAN_POINT('',(7.4,1.1842378929335E-17,16.000000000001));
#889=DIRECTION('',(0.70710678118655,-1.3073079107995E-14,-0.70710678118654));
#890=VECTOR('',#889,0.14142135623731);
#891=LINE('',#888,#890);
#892=EDGE_CURVE('',#587,#549,#891,.T.);
#893=ORIENTED_EDGE('',*,*,#892,.T.);
#894=ORIENTED_EDGE('',*,*,#561,.F.);
#895=ORIENTED_EDGE('',*,*,#892,.F.);
#896=ORIENTED_EDGE('',*,*,#593,.F.);
#897=EDGE_LOOP('',(#893,#894,#895,#896));
#898=FACE_OUTER_BOUND('',#897,.T.);
#899=ADVANCED_FACE('',(#898),#887,.T.);
#900=CARTESIAN_POINT('',(-4.9834637248491E-15,1.320324323815E-14,11.9));
#901=DIRECTION('',(1.,-3.7827881699794E-15,3.3902468287688E-16));
#902=DIRECTION('',(-3.3902468287688E-16,4.2648095606937E-16,1.));
#903=AXIS2_PLACEMENT_3D('',#900,#902,#901);
#904=CONICAL_SURFACE('',#903,0.,0.78539816339743);
#905=ORIENTED_EDGE('',*,*,#604,.F.);
#906=CARTESIAN_POINT('',(4.1,-5.5761633888167E-16,16.));
#907=DIRECTION('',(-0.70710678118655,3.9429429452365E-15,-0.70710678118655));
#908=VECTOR('',#907,0.14142135623731);
#909=LINE('',#906,#908);
#910=EDGE_CURVE('',#598,#389,#909,.T.);
#911=ORIENTED_EDGE('',*,*,#910,.T.);
#912=ORIENTED_EDGE('',*,*,#401,.F.);
#913=ORIENTED_EDGE('',*,*,#910,.F.);
#914=EDGE_LOOP('',(#905,#911,#912,#913));
#915=FACE_OUTER_BOUND('',#914,.T.);
#916=ADVANCED_FACE('',(#915),#904,.F.);
#917=CLOSED_SHELL('',(#123,#217,#250,#283,#316,#349,#419,#452,#485,#518,#580,#608,#627,#644,#661,#678,#695,#712,#729,#746,#763,#780,#797,#814,#831,#848,#865,#882,#899,#916));
#918=COLOUR_RGB('',0.745098,0.901961,0.960784);
#919=FILL_AREA_STYLE_COLOUR('',#918);
#920=FILL_AREA_STYLE('',(#919));
#921=SURFACE_STYLE_FILL_AREA(#920);
#922=SURFACE_SIDE_STYLE('',(#921));
#923=SURFACE_STYLE_USAGE(.BOTH.,#922);
#924=PRESENTATION_STYLE_ASSIGNMENT((#923));
#925=OVER_RIDING_STYLED_ITEM('',(#924),#123,#917);
#926=OVER_RIDING_STYLED_ITEM('',(#924),#217,#917);
#927=OVER_RIDING_STYLED_ITEM('',(#924),#250,#917);
#928=OVER_RIDING_STYLED_ITEM('',(#924),#283,#917);
#929=OVER_RIDING_STYLED_ITEM('',(#924),#316,#917);
#930=OVER_RIDING_STYLED_ITEM('',(#924),#349,#917);
#931=OVER_RIDING_STYLED_ITEM('',(#924),#419,#917);
#932=OVER_RIDING_STYLED_ITEM('',(#924),#452,#917);
#933=OVER_RIDING_STYLED_ITEM('',(#924),#485,#917);
#934=OVER_RIDING_STYLED_ITEM('',(#924),#518,#917);
#935=OVER_RIDING_STYLED_ITEM('',(#924),#580,#917);
#936=OVER_RIDING_STYLED_ITEM('',(#924),#608,#917);
#937=COLOUR_RGB('',0.54902,0.54902,0.921569);
#938=FILL_AREA_STYLE_COLOUR('',#937);
#939=FILL_AREA_STYLE('',(#938));
#940=SURFACE_STYLE_FILL_AREA(#939);
#941=SURFACE_SIDE_STYLE('',(#940));
#942=SURFACE_STYLE_USAGE(.BOTH.,#941);
#943=PRESENTATION_STYLE_ASSIGNMENT((#942));
#944=OVER_RIDING_STYLED_ITEM('',(#943),#627,#917);
#945=OVER_RIDING_STYLED_ITEM('',(#924),#644,#917);
#946=OVER_RIDING_STYLED_ITEM('',(#924),#661,#917);
#947=OVER_RIDING_STYLED_ITEM('',(#924),#678,#917);
#948=OVER_RIDING_STYLED_ITEM('',(#924),#695,#917);
#949=OVER_RIDING_STYLED_ITEM('',(#924),#712,#917);
#950=OVER_RIDING_STYLED_ITEM('',(#924),#729,#917);
#951=OVER_RIDING_STYLED_ITEM('',(#924),#746,#917);
#952=OVER_RIDING_STYLED_ITEM('',(#924),#763,#917);
#953=OVER_RIDING_STYLED_ITEM('',(#924),#780,#917);
#954=OVER_RIDING_STYLED_ITEM('',(#924),#797,#917);
#955=OVER_RIDING_STYLED_ITEM('',(#924),#814,#917);
#956=OVER_RIDING_STYLED_ITEM('',(#924),#831,#917);
#957=OVER_RIDING_STYLED_ITEM('',(#924),#848,#917);
#958=OVER_RIDING_STYLED_ITEM('',(#924),#865,#917);
#959=OVER_RIDING_STYLED_ITEM('',(#924),#882,#917);
#960=OVER_RIDING_STYLED_ITEM('',(#924),#899,#917);
#961=OVER_RIDING_STYLED_ITEM('',(#924),#916,#917);
#962=MANIFOLD_SOLID_BREP('S1',#917);
#963=ADVANCED_BREP_SHAPE_REPRESENTATION('',(#962),#5);
#964=SHAPE_REPRESENTATION_RELATIONSHIP('NONE', 'NONE', #28, #963);
#965=PRESENTATION_LAYER_ASSIGNMENT('图层000','',(#962));
#966=MECHANICAL_DESIGN_GEOMETRIC_PRESENTATION_REPRESENTATION('',(#925,#926,#927,#928,#929,#930,#931,#932,#933,#934,#935,#936,#944,#945,#946,#947,#948,#949,#950,#951,#952,#953,#954,#955,#956,#957,#958,#959,#960,#961),#5);
ENDSEC;
END-ISO-10303-21;
